<svg width="1440" height="1748" viewBox="0 0 1440 1748" fill="none" xmlns="http://www.w3.org/2000/svg">
<g opacity="0.1">
<path d="M166.818 -385.373L194.663 -342.832C221.96 -299.746 278.269 -215.688 326.551 -122.421C374.94 -30.6934 415.098 70.0384 448.642 175.914C482.66 283.364 509.41 398.043 593.7 453.458C678.157 510.139 822.14 506.81 928.848 541.978C1035.49 575.984 1105.72 646.609 1154.41 739.467C1202.19 831.398 1228.83 945.974 1291.18 1023.21C1353.9 1101.92 1453.79 1142.02 1503.74 1164.01L1553.23 1184.42L1772.67 966.212L1737.55 930.9C1702.44 895.587 1632.42 825.168 1561.78 754.131C1491.86 683.815 1421.53 613.087 1351.91 543.079C1281.27 472.042 1210.63 401.005 1141.02 330.998C1070.69 260.27 1000.77 189.953 930.13 118.917C860.106 48.4973 789.878 -22.1278 719.24 -93.1648C649.523 -163.275 578.987 -234.209 509.373 -304.217C438.837 -375.151 369.121 -445.261 333.29 -481.294L298.483 -516.298L166.818 -385.373Z" fill="white" fill-opacity="0.7"/>
<rect x="1192.7" y="-1405.5" width="2105.59" height="1261.08" transform="rotate(45.1613 1192.7 -1405.5)" fill="white" fill-opacity="0.7"/>
</g>
<g opacity="0.1">
<path d="M44.8192 -144.372L72.6645 -101.831C38.8242 19.5509 156.27 25.3121 204.552 118.579C252.941 210.307 293.099 311.039 326.643 416.914C360.661 524.365 387.411 639.043 471.701 694.458C556.158 751.139 700.141 747.81 806.849 782.979C913.492 816.984 983.721 887.61 1032.41 980.467C1080.19 1072.4 1106.83 1186.97 1169.18 1264.21C1231.9 1342.92 1331.79 1383.02 1381.75 1405.01L1431.23 1425.42L1650.67 1207.21L1615.55 1171.9C1580.44 1136.59 1510.42 1066.17 1439.78 995.131C1369.86 924.815 1299.53 854.087 1229.91 784.08C1159.27 713.043 1088.64 642.006 1019.02 571.998C948.691 501.27 878.769 430.954 808.131 359.917C738.107 289.498 667.879 218.873 597.241 147.836C527.524 77.7253 456.988 6.79132 387.374 -63.2161C316.838 -134.15 247.122 -204.26 211.291 -240.294L176.484 -275.297L44.8192 -144.372Z" fill="white" fill-opacity="0.7"/>
<rect x="1070.71" y="-1164.5" width="2105.59" height="1261.08" transform="rotate(45.1613 1070.71 -1164.5)" fill="white" fill-opacity="0.7"/>
</g>
<g opacity="0.1">
<path d="M336.819 -606.372L364.664 -563.832C391.961 -520.745 448.27 -436.688 496.552 -343.421C544.941 -251.693 585.099 -150.961 618.642 -45.0858C652.661 62.3647 679.411 177.043 763.701 232.458C848.158 289.139 992.141 285.81 1098.85 320.979C1205.49 354.984 1275.72 425.609 1324.41 518.467C1372.19 610.399 1398.83 724.974 1461.18 802.21C1523.9 880.917 1623.79 921.024 1673.75 943.01L1723.23 963.421L1942.67 745.212L1907.55 709.9C1872.44 674.587 1802.42 604.168 1731.78 533.131C1661.86 462.815 1591.53 392.087 1521.91 322.079C1451.27 251.042 1380.64 180.005 1311.02 109.998C1240.69 39.27 1170.77 -31.0463 1100.13 -102.083C1030.11 -172.502 959.879 -243.128 889.241 -314.164C819.524 -384.275 748.988 -455.209 679.374 -525.216C608.838 -596.15 539.122 -666.261 503.291 -702.294L468.484 -737.298L336.819 -606.372Z" fill="white" fill-opacity="0.7"/>
<rect x="1362.71" y="-1626.5" width="2105.59" height="1261.08" transform="rotate(45.1613 1362.71 -1626.5)" fill="white" fill-opacity="0.7"/>
</g>
</svg>
