<svg width="497" height="395" viewBox="0 0 497 395" fill="none" xmlns="http://www.w3.org/2000/svg">
<g clip-path="url(#clip0_26_236)">
<path d="M67.6925 395C105.078 395 135.385 392.687 135.385 389.834C135.385 386.981 105.078 384.668 67.6925 384.668C30.3069 384.668 0 386.981 0 389.834C0 392.687 30.3069 395 67.6925 395Z" fill="#F2F2F2"/>
<path d="M122.645 143.364C126.471 139.469 131.583 138.286 134.059 140.722C136.534 143.159 135.442 148.291 131.615 152.188C130.107 153.764 128.244 154.957 126.181 155.666L109.766 171.969L102.282 164.099L119.262 148.864C119.935 146.788 121.095 144.902 122.646 143.366L122.645 143.364Z" fill="#ED9DA0"/>
<path d="M70.1374 129.909L87.3514 168.12L114.84 153.232L124.678 158.456C124.678 158.456 102.209 196.046 86.8201 191.767C71.4315 187.488 44.1127 148.687 49.0353 136.712C53.958 124.737 70.1386 129.908 70.1386 129.908L70.1374 129.909Z" fill="#4A4A4A"/>
<path d="M62.5892 384.571H75.1413L81.1123 336.129H62.5867L62.5892 384.571Z" fill="#ED9DA0"/>
<path d="M105.594 384.286C105.985 384.945 106.191 387.07 106.191 387.836C106.191 388.967 105.742 390.051 104.944 390.85C104.145 391.649 103.062 392.099 101.932 392.099H63.059C62.6774 392.099 62.2995 392.024 61.9469 391.878C61.5944 391.732 61.274 391.517 61.0042 391.247C60.7343 390.977 60.5203 390.657 60.3742 390.304C60.2282 389.951 60.153 389.573 60.153 389.191V387.572C60.153 387.572 58.2289 382.705 62.1888 376.704C62.1888 376.704 67.1096 381.401 74.4616 374.044L76.6297 370.114L92.3243 381.599L101.024 382.67C102.927 382.904 104.614 382.634 105.593 384.285L105.594 384.286Z" fill="#2F2E41"/>
<path d="M72.0875 132.361L72.3414 115.421L61.9015 108.909L50.5491 122.804L72.0875 132.361Z" fill="#ED9DA0"/>
<path d="M72.1204 120.692C82.3748 120.692 90.6876 112.374 90.6876 102.114C90.6876 91.8536 82.3748 83.5359 72.1204 83.5359C61.8661 83.5359 53.5533 91.8536 53.5533 102.114C53.5533 112.374 61.8661 120.692 72.1204 120.692Z" fill="#ED9DA0"/>
<path d="M97.4419 244.374L80.1459 362.141H58.4455L61.3311 294.917L62.8499 259.569L58.443 242.745C57.0445 240.064 55.809 237.301 54.7431 234.472C52.8364 229.356 51.3294 223.222 53.5638 220.312C54.3862 219.24 56.5251 218.448 59.4318 217.855C61.4408 217.464 63.4683 217.175 65.5064 216.99C78.3391 215.719 96.5928 216.513 96.5928 216.513L97.0571 231.835L97.3146 240.391L97.4419 244.374Z" fill="#2F2E41"/>
<path d="M40.4823 378.812L52.9009 380.638L65.8509 333.578L47.5221 330.883L40.4823 378.812Z" fill="#ED9DA0"/>
<path d="M83.0674 384.789C83.3586 385.497 83.2537 387.63 83.1419 388.391C82.9775 389.509 82.3758 390.516 81.4692 391.191C80.5625 391.866 79.4252 392.152 78.3074 391.988L39.8498 386.328C39.4722 386.272 39.1091 386.143 38.7814 385.947C38.4538 385.751 38.1679 385.492 37.9401 385.186C37.7123 384.879 37.5471 384.531 37.4539 384.161C37.3607 383.79 37.3413 383.405 37.3969 383.027L37.6321 381.425C37.6321 381.425 36.4373 376.332 41.2259 370.971C41.2259 370.971 45.4111 376.335 53.755 370.126L56.4717 366.553L70.3298 380.2L78.781 382.527C80.63 383.035 82.3388 383.014 83.0674 384.789Z" fill="#2F2E41"/>
<path d="M97.7143 224.733L95.3421 245.176L82.4045 288.254L61.107 359.174L39.64 356.018L58.9067 255.179L56.9993 237.887C56.9993 237.887 56.3786 236.169 55.6661 233.652C54.2528 228.674 52.4795 220.567 54.4303 216.432C54.6735 215.894 55.0135 215.404 55.4333 214.988C56.2005 214.243 57.7597 213.791 59.8489 213.551C68.5807 212.564 86.5631 215.388 94.5644 216.775L97.715 224.733L97.7143 224.733Z" fill="#2F2E41"/>
<path d="M52.9363 119.221L74.0291 129.352C74.0291 129.352 96.3873 195.622 96.3873 198.999C96.3873 202.376 102.715 204.486 98.9185 208.285C95.1218 212.084 105.985 215.303 100.132 218.336C94.2789 221.369 57.7628 237.969 53.7047 236.471C42.5064 232.343 54.1796 217.173 54.1796 217.173C54.1796 217.173 45.765 210.391 47.0305 207.017C48.2961 203.643 39.4371 139.059 39.4371 139.059L52.9363 119.221Z" fill="#393D46"/>
<path d="M70.9858 106.564L73.3742 111.346C73.3742 111.346 75.7626 102.744 79.5811 100.832C83.3995 98.9207 83.8799 96.0502 83.8799 96.0502C83.8799 96.0502 88.6592 102.261 91.9997 100.832C95.3402 99.4038 96.779 98.4425 92.9549 92.7077C89.1309 86.9729 90.0892 89.8403 90.0892 89.8403C90.0892 89.8403 86.7456 85.0582 87.2235 86.4946C87.7015 87.9311 84.3578 82.6714 84.3578 84.1048C84.3578 85.5382 81.9694 81.2374 81.9694 82.6708C81.9694 84.1042 71.9392 79.3252 73.3723 81.2368C74.8055 83.1484 64.774 77.4118 60.0009 85.0563C55.2279 92.7008 48.6021 91.2885 50.9582 96.0582C53.3143 100.828 52.3603 113.733 52.3603 113.733H58.9458C58.9458 113.733 65.7323 100.829 70.9871 106.564H70.9858Z" fill="#090814"/>
<path d="M492.697 194.822H219.633C218.492 194.821 217.398 194.367 216.592 193.56C215.785 192.753 215.331 191.659 215.33 190.517V71.6974C215.331 70.5559 215.785 69.4615 216.592 68.6544C217.398 67.8473 218.492 67.3934 219.633 67.3922H492.697C493.838 67.3934 494.932 67.8473 495.739 68.6544C496.545 69.4615 496.999 70.5559 497 71.6974V190.517C496.999 191.658 496.545 192.752 495.739 193.559C494.932 194.367 493.838 194.821 492.697 194.822ZM219.633 69.1144C218.949 69.1152 218.292 69.3876 217.808 69.8718C217.325 70.3561 217.052 71.0126 217.051 71.6974V190.517C217.052 191.201 217.325 191.858 217.808 192.342C218.292 192.826 218.949 193.099 219.633 193.099H492.697C493.382 193.099 494.038 192.826 494.522 192.342C495.006 191.858 495.278 191.201 495.279 190.517V71.6974C495.278 71.0126 495.006 70.3561 494.522 69.8718C494.038 69.3876 493.382 69.1152 492.697 69.1144H219.633Z" fill="#E6E6E6"/>
<path d="M230.82 82.0292C230.135 82.0292 229.478 82.3013 228.994 82.7857C228.51 83.2701 228.238 83.9271 228.238 84.6121C228.238 85.2972 228.51 85.9542 228.994 86.4386C229.478 86.923 230.135 87.1951 230.82 87.1951H266.96C267.645 87.1951 268.301 86.923 268.785 86.4386C269.27 85.9542 269.542 85.2972 269.542 84.6121C269.542 83.9271 269.27 83.2701 268.785 82.7857C268.301 82.3013 267.645 82.0292 266.96 82.0292H230.82Z" fill="#E6E6E6"/>
<path d="M478.235 99.9931V147.892H234.525V122.673C236.213 121.589 237.91 120.51 239.623 119.466C246.94 114.986 254.768 110.796 263.306 109.244C267.343 108.491 271.479 108.439 275.534 109.091C279.816 109.798 283.913 111.275 287.974 112.755C291.976 114.221 295.989 115.736 300.175 116.583C304.254 117.384 308.441 117.467 312.549 116.827C320.385 115.651 327.747 112.5 335.08 109.649C342.457 106.783 350.059 104.075 358.045 103.718C365.928 103.362 373.713 105.225 381.192 107.536C396.442 112.245 412.013 119.23 428.16 114.439C444.557 109.583 459.639 95.5594 477.81 99.7205C477.982 99.7521 478.135 99.8486 478.238 99.99L478.235 99.9931Z" fill="#F2F2F2"/>
<path d="M478.236 100.828C478.158 100.974 478.034 101.09 477.883 101.156C477.731 101.223 477.562 101.236 477.402 101.195C475.237 100.698 473.019 100.468 470.798 100.512C452.922 100.827 439.181 115.224 421.702 117.378C405.944 119.318 391.113 111.651 376.297 107.645C368.601 105.562 360.662 104.458 352.741 105.873C344.88 107.273 337.502 110.49 330.094 113.346C322.961 116.095 315.548 118.651 307.825 118.778C299.333 118.92 291.687 115.418 283.81 112.75C279.713 111.36 275.511 110.261 271.171 110.154C266.942 110.103 262.733 110.755 258.716 112.083C250.347 114.746 242.806 119.49 235.465 124.205C235.338 124.294 235.184 124.336 235.03 124.322C234.872 124.301 234.723 124.232 234.605 124.125C234.487 124.017 234.404 123.876 234.367 123.72C234.331 123.564 234.343 123.401 234.401 123.252C234.46 123.103 234.562 122.976 234.694 122.886L235.03 122.673C236.714 121.588 238.409 120.509 240.12 119.466C247.421 114.985 255.236 110.796 263.753 109.243C267.781 108.49 271.908 108.438 275.954 109.09C280.228 109.798 284.318 111.275 288.367 112.755C292.362 114.221 296.366 115.736 300.543 116.583C304.613 117.384 308.792 117.466 312.891 116.827C320.712 115.651 328.058 112.499 335.375 109.649C342.737 106.782 350.323 104.074 358.291 103.718C366.157 103.361 373.926 105.224 381.389 107.536C396.607 112.245 412.146 119.23 428.259 114.439C444.622 109.582 459.672 95.5588 477.805 99.7199C477.977 99.7517 478.13 99.8482 478.233 99.9894C478.313 100.115 478.356 100.26 478.356 100.409C478.357 100.557 478.315 100.703 478.236 100.828Z" fill="#DFD1B7"/>
<path d="M268.105 113.275C270.072 113.275 271.667 111.68 271.667 109.711C271.667 107.743 270.072 106.148 268.105 106.148C266.138 106.148 264.544 107.743 264.544 109.711C264.544 111.68 266.138 113.275 268.105 113.275Z" fill="#DFD1B7"/>
<path d="M358.161 108.693C360.128 108.693 361.722 107.098 361.722 105.13C361.722 103.162 360.128 101.566 358.161 101.566C356.194 101.566 354.599 103.162 354.599 105.13C354.599 107.098 356.194 108.693 358.161 108.693Z" fill="#DFD1B7"/>
<path d="M468.561 104.127C470.528 104.127 472.123 102.532 472.123 100.564C472.123 98.5955 470.528 97 468.561 97C466.595 97 465 98.5955 465 100.564C465 102.532 466.595 104.127 468.561 104.127Z" fill="#DFD1B7"/>
<path d="M266.1 168.13C265.415 168.13 264.759 168.402 264.275 168.887C263.79 169.371 263.518 170.028 263.518 170.713C263.518 171.398 263.79 172.055 264.275 172.54C264.759 173.024 265.415 173.296 266.1 173.296H302.24C302.925 173.296 303.582 173.024 304.066 172.54C304.55 172.055 304.822 171.398 304.822 170.713C304.822 170.028 304.55 169.371 304.066 168.887C303.582 168.402 302.925 168.13 302.24 168.13H266.1Z" fill="#E6E6E6"/>
<path d="M242.866 180.184C248.252 180.184 252.619 175.815 252.619 170.426C252.619 165.037 248.252 160.668 242.866 160.668C237.48 160.668 233.114 165.037 233.114 170.426C233.114 175.815 237.48 180.184 242.866 180.184Z" fill="#DFD1B7"/>
<path d="M353.297 168.13C352.612 168.13 351.955 168.402 351.471 168.887C350.987 169.371 350.715 170.028 350.715 170.713C350.715 171.398 350.987 172.055 351.471 172.54C351.955 173.024 352.612 173.296 353.297 173.296H389.437C390.122 173.296 390.778 173.024 391.263 172.54C391.747 172.055 392.019 171.398 392.019 170.713C392.019 170.028 391.747 169.371 391.263 168.887C390.778 168.402 390.122 168.13 389.437 168.13H353.297Z" fill="#E6E6E6"/>
<path d="M330.063 180.184C335.449 180.184 339.815 175.815 339.815 170.426C339.815 165.037 335.449 160.668 330.063 160.668C324.677 160.668 320.311 165.037 320.311 170.426C320.311 175.815 324.677 180.184 330.063 180.184Z" fill="#DFD1B7"/>
<path d="M440.494 168.13C439.81 168.13 439.153 168.402 438.669 168.887C438.185 169.371 437.913 170.028 437.913 170.713C437.913 171.398 438.185 172.055 438.669 172.54C439.153 173.024 439.81 173.296 440.494 173.296H476.635C477.319 173.296 477.976 173.024 478.46 172.54C478.944 172.055 479.216 171.398 479.216 170.713C479.216 170.028 478.944 169.371 478.46 168.887C477.976 168.402 477.319 168.13 476.635 168.13H440.494Z" fill="#E6E6E6"/>
<path d="M417.261 180.184C422.647 180.184 427.013 175.815 427.013 170.426C427.013 165.037 422.647 160.668 417.261 160.668C411.875 160.668 407.508 165.037 407.508 170.426C407.508 175.815 411.875 180.184 417.261 180.184Z" fill="#DFD1B7"/>
<path d="M258.309 36.072H123.589C120.963 36.072 118.834 34.5547 118.831 32.6854V3.38721C118.831 1.51784 120.963 0.000610352 123.589 0.000610352H258.309C260.935 0.000610352 263.063 1.51784 263.067 3.38721V32.6847C263.064 34.5541 260.935 36.0695 258.309 36.072ZM123.589 1.35387C122.013 1.35387 120.734 2.26434 120.734 3.38596V32.6835C120.734 33.8051 122.012 34.7143 123.589 34.7156H258.309C259.885 34.7156 261.164 33.8051 261.164 32.6835V3.38721C261.164 2.26559 259.885 1.35637 258.309 1.35513L123.589 1.35387Z" fill="#E6E6E6"/>
<path d="M154.051 16.6504C153.29 16.6514 152.561 16.9541 152.024 17.4921C151.486 18.0301 151.184 18.7594 151.183 19.5203V39.6107C151.184 40.3715 151.486 41.1009 152.024 41.6389C152.561 42.1769 153.29 42.4796 154.051 42.4806H256.737C257.497 42.4796 258.226 42.1769 258.764 41.6389C259.302 41.1009 259.604 40.3715 259.605 39.6107V19.5203C259.604 18.7594 259.302 18.0301 258.764 17.4921C258.226 16.9541 257.497 16.6514 256.737 16.6504H154.051Z" fill="#DFD1B7"/>
<path d="M168.393 36.1669C171.878 36.1669 174.703 33.34 174.703 29.8527C174.703 26.3654 171.878 23.5385 168.393 23.5385C164.908 23.5385 162.082 26.3654 162.082 29.8527C162.082 33.34 164.908 36.1669 168.393 36.1669Z" fill="white"/>
<path d="M197.152 27.1115C196.467 27.1115 195.811 27.3836 195.326 27.868C194.842 28.3524 194.57 29.0094 194.57 29.6944C194.57 30.3794 194.842 31.0364 195.326 31.5208C195.811 32.0052 196.467 32.2774 197.152 32.2774H233.292C233.977 32.2774 234.634 32.0052 235.118 31.5208C235.602 31.0364 235.874 30.3794 235.874 29.6944C235.874 29.0094 235.602 28.3524 235.118 27.868C234.634 27.3836 233.977 27.1115 233.292 27.1115H197.152Z" fill="white"/>
<path d="M324.67 260.205H189.95C187.324 260.205 185.195 258.688 185.192 256.818V227.52C185.192 225.651 187.324 224.134 189.95 224.134H324.67C327.296 224.134 329.425 225.651 329.428 227.52V256.818C329.425 258.687 327.296 260.202 324.67 260.205ZM189.95 225.487C188.374 225.487 187.095 226.397 187.095 227.519V256.816C187.095 257.938 188.373 258.847 189.95 258.849H324.67C326.246 258.849 327.525 257.938 327.525 256.816V227.52C327.525 226.399 326.247 225.489 324.67 225.488L189.95 225.487Z" fill="#E6E6E6"/>
<path d="M220.412 240.784C219.652 240.785 218.923 241.088 218.385 241.626C217.848 242.164 217.545 242.893 217.544 243.654V263.744C217.545 264.505 217.848 265.234 218.385 265.772C218.923 266.31 219.652 266.613 220.412 266.614H323.099C323.859 266.613 324.588 266.31 325.126 265.772C325.663 265.234 325.966 264.505 325.967 263.744V243.654C325.966 242.893 325.663 242.164 325.126 241.626C324.588 241.088 323.859 240.785 323.099 240.784H220.412Z" fill="#DFD1B7"/>
<path d="M234.754 260.3C238.239 260.3 241.065 257.473 241.065 253.986C241.065 250.498 238.239 247.671 234.754 247.671C231.269 247.671 228.444 250.498 228.444 253.986C228.444 257.473 231.269 260.3 234.754 260.3Z" fill="white"/>
<path d="M263.513 251.245C262.828 251.245 262.172 251.517 261.687 252.001C261.203 252.486 260.931 253.143 260.931 253.828C260.931 254.513 261.203 255.17 261.687 255.654C262.172 256.139 262.828 256.411 263.513 256.411H299.653C300.338 256.411 300.995 256.139 301.479 255.654C301.963 255.17 302.235 254.513 302.235 253.828C302.235 253.143 301.963 252.486 301.479 252.001C300.995 251.517 300.338 251.245 299.653 251.245H263.513Z" fill="white"/>
<path d="M142.7 196.511L112.487 174.532C111.964 174.15 111.614 173.576 111.513 172.936C111.412 172.296 111.569 171.642 111.949 171.118C113.51 157.18 126.215 143.53 141.873 129.957C142.255 129.433 142.828 129.082 143.468 128.981C144.108 128.88 144.762 129.037 145.286 129.417L175.496 151.397C176.02 151.778 176.37 152.352 176.471 152.992C176.572 153.632 176.415 154.286 176.035 154.811C163.331 167.722 153.146 181.379 146.112 195.971C145.73 196.495 145.157 196.845 144.517 196.947C143.878 197.048 143.224 196.891 142.7 196.511Z" fill="#E6E6E6"/>
<path d="M174.13 152.487L164.934 145.797C159.326 141.743 152.341 140.074 145.506 141.154C138.67 142.235 132.539 145.978 128.452 151.565L113.813 171.697C113.597 171.995 113.507 172.367 113.564 172.731C113.621 173.095 113.821 173.422 114.118 173.639L143.314 194.877C143.613 195.093 143.985 195.182 144.349 195.124C144.713 195.066 145.039 194.866 145.256 194.567C151.263 179.513 161.281 166.264 174.436 154.428C174.653 154.13 174.742 153.758 174.684 153.394C174.627 153.03 174.428 152.704 174.13 152.487Z" fill="white"/>
<path d="M137.832 181.177L131.843 176.82C131.765 176.763 131.676 176.722 131.581 176.699C131.486 176.676 131.388 176.672 131.292 176.687C131.196 176.703 131.104 176.737 131.021 176.787C130.938 176.838 130.866 176.905 130.809 176.983C130.752 177.062 130.71 177.151 130.688 177.246C130.665 177.341 130.661 177.439 130.676 177.535C130.691 177.631 130.725 177.723 130.776 177.806C130.827 177.889 130.893 177.961 130.972 178.018L136.961 182.375C137.12 182.491 137.318 182.539 137.512 182.508C137.706 182.477 137.88 182.371 137.995 182.212C138.111 182.053 138.159 181.855 138.128 181.661C138.098 181.467 137.991 181.293 137.832 181.177Z" fill="#CCCCCC"/>
<path d="M147.242 182.984L134.089 173.416C133.93 173.3 133.732 173.252 133.538 173.283C133.344 173.314 133.17 173.42 133.054 173.579C132.939 173.738 132.891 173.936 132.922 174.13C132.952 174.325 133.059 174.498 133.218 174.614L146.37 184.183C146.529 184.298 146.727 184.346 146.921 184.315C147.115 184.285 147.289 184.178 147.405 184.019C147.52 183.86 147.568 183.662 147.538 183.468C147.507 183.274 147.4 183.1 147.242 182.984Z" fill="#CCCCCC"/>
<path d="M124.942 167.125C122.352 167.868 120.854 170.571 121.596 173.162C122.339 175.753 125.04 177.251 127.63 176.507C130.22 175.764 131.718 173.061 130.975 170.47C130.233 167.879 127.532 166.382 124.942 167.125Z" fill="#DFD1B7"/>
<path d="M144.959 173.092L128.805 161.337C128.645 161.246 128.458 161.216 128.278 161.255C128.099 161.293 127.94 161.397 127.832 161.545C127.723 161.694 127.674 161.877 127.693 162.06C127.712 162.243 127.797 162.412 127.933 162.536L144.088 174.291C144.248 174.383 144.435 174.412 144.615 174.374C144.795 174.336 144.955 174.232 145.063 174.083C145.171 173.934 145.22 173.751 145.201 173.568C145.182 173.384 145.096 173.215 144.959 173.092Z" fill="#CCCCCC"/>
<path d="M153.615 174.35L131.067 157.947C130.908 157.852 130.718 157.82 130.536 157.857C130.355 157.894 130.193 157.998 130.084 158.148C129.974 158.298 129.925 158.484 129.945 158.669C129.966 158.853 130.054 159.024 130.194 159.146L152.744 175.549C152.903 175.641 153.091 175.67 153.271 175.632C153.451 175.594 153.61 175.49 153.718 175.341C153.826 175.192 153.876 175.009 153.857 174.826C153.838 174.643 153.751 174.473 153.615 174.35Z" fill="#CCCCCC"/>
<path d="M150.864 164.968L134.709 153.213C134.55 153.122 134.362 153.093 134.183 153.131C134.003 153.169 133.844 153.273 133.736 153.421C133.628 153.57 133.579 153.753 133.597 153.936C133.616 154.119 133.702 154.288 133.838 154.412L149.993 166.167C150.152 166.259 150.34 166.288 150.52 166.25C150.7 166.212 150.859 166.108 150.967 165.959C151.076 165.81 151.125 165.627 151.106 165.444C151.087 165.261 151.001 165.091 150.864 164.968Z" fill="#CCCCCC"/>
<path d="M165.961 158.615L149.806 146.86C149.647 146.769 149.46 146.739 149.28 146.778C149.1 146.816 148.941 146.92 148.833 147.068C148.725 147.217 148.676 147.4 148.695 147.583C148.713 147.766 148.799 147.935 148.935 148.058L165.09 159.814C165.249 159.905 165.437 159.935 165.617 159.897C165.797 159.858 165.956 159.755 166.065 159.606C166.173 159.457 166.222 159.273 166.203 159.09C166.184 158.907 166.098 158.738 165.961 158.615Z" fill="#DFD1B7"/>
<path d="M159.519 166.226L136.972 149.823C136.812 149.728 136.623 149.696 136.441 149.733C136.259 149.77 136.098 149.874 135.988 150.024C135.879 150.174 135.83 150.36 135.85 150.545C135.87 150.729 135.959 150.9 136.098 151.022L158.648 167.425C158.808 167.517 158.995 167.547 159.175 167.508C159.355 167.47 159.515 167.366 159.623 167.217C159.731 167.069 159.78 166.885 159.761 166.702C159.742 166.519 159.656 166.349 159.519 166.226Z" fill="#CCCCCC"/>
<path d="M117.208 177.615C122.442 176.067 127.484 177.515 128.467 180.849C129.451 184.183 126.005 188.139 120.771 189.686C118.688 190.333 116.48 190.471 114.332 190.089L92.0692 196.366L89.3481 185.849L111.584 180.778C113.18 179.29 115.11 178.205 117.211 177.615L117.208 177.615Z" fill="#ED9DA0"/>
<path d="M77.8307 140.345L74.3412 182.114L105.596 182.45L111.662 191.796C111.662 191.796 73.7789 213.744 62.4036 202.53C51.0283 191.315 45.9679 144.121 56.0813 136.042C66.1947 127.963 77.8307 140.344 77.8307 140.344V140.345Z" fill="#4A4A4A"/>
</g>
<defs>
<clipPath id="clip0_26_236">
<rect width="497" height="395" fill="white"/>
</clipPath>
</defs>
</svg>
