<svg width="465" height="436" viewBox="0 0 465 436" fill="none" xmlns="http://www.w3.org/2000/svg">
<g clip-path="url(#clip0_25_150)">
<path d="M200.669 30.8661C310.579 31.0392 399.56 121.508 399.384 232.961C399.208 344.415 309.943 434.603 200.033 434.43C90.1239 434.257 1.14377 343.788 1.31915 232.335C1.49463 120.881 90.7593 30.6933 200.669 30.8661Z" stroke="#DFD1B7" stroke-opacity="0.25" stroke-width="2"/>
<path d="M200.034 434.553C310.031 434.726 399.344 344.471 399.519 232.962C399.695 121.452 310.667 30.9159 200.669 30.7427C90.6721 30.5696 1.35938 120.825 1.18381 232.334C1.00824 343.843 90.0363 434.38 200.034 434.553Z" stroke="#DFD1B7" stroke-opacity="0.25" stroke-width="2"/>
<path d="M217.823 8.06084L229.83 8.07975C230.273 8.08261 230.697 8.26246 231.009 8.5802C231.322 8.89794 231.498 9.32789 231.5 9.77663L231.48 21.9534C231.477 22.4016 231.3 22.8305 230.986 23.1464C230.672 23.4623 230.248 23.6396 229.806 23.6397L217.796 23.6208C217.354 23.6201 216.93 23.4415 216.618 23.1243C216.306 22.8072 216.131 22.3773 216.131 21.9292L216.15 9.75303C216.151 9.30398 216.328 8.87381 216.642 8.55666C216.956 8.23951 217.38 8.06124 217.823 8.06084ZM229.807 23.0928C230.106 23.0928 230.394 22.9728 230.606 22.7588C230.818 22.5448 230.939 22.2544 230.941 21.9508L230.96 9.77578C230.959 9.47168 230.839 9.18041 230.627 8.96516C230.415 8.74991 230.128 8.62805 229.828 8.62603L217.824 8.60713C217.524 8.60728 217.236 8.72797 217.024 8.94278C216.811 9.1576 216.691 9.44904 216.69 9.75331L216.671 21.9289C216.671 22.232 216.789 22.5229 217 22.7375C217.212 22.9521 217.498 23.0728 217.797 23.0733L229.807 23.0928Z" fill="#D6D6E3"/>
<path d="M229.796 29.1002L217.79 29.0813C217.606 29.0811 217.423 29.1177 217.253 29.189C217.083 29.2603 216.928 29.3649 216.798 29.4969C216.667 29.6289 216.564 29.7856 216.493 29.9581C216.422 30.1306 216.386 30.3155 216.386 30.5023L216.367 42.6779C216.367 42.8641 216.403 43.0485 216.473 43.2205C216.544 43.3925 216.647 43.5487 216.777 43.6803C216.907 43.8118 217.061 43.9161 217.231 43.9872C217.401 44.0582 217.583 44.0947 217.767 44.0944L229.772 44.1133C230.143 44.1141 230.498 43.9659 230.762 43.7012C231.025 43.4366 231.174 43.077 231.176 42.7012L231.195 30.5256C231.195 30.149 231.047 29.7878 230.785 29.5211C230.523 29.2544 230.167 29.1037 229.796 29.102L229.796 29.1002Z" fill="#D6D6E3"/>
<path d="M229.763 49.8479L217.757 49.829C217.386 49.8286 217.029 49.9778 216.766 50.244C216.502 50.5101 216.354 50.8713 216.353 51.2482L216.334 63.4191C216.333 63.6059 216.369 63.7909 216.439 63.9636C216.509 64.1364 216.612 64.2934 216.742 64.4257C216.872 64.5579 217.027 64.6629 217.197 64.7344C217.367 64.806 217.55 64.8428 217.734 64.8427L229.739 64.8616C230.111 64.862 230.468 64.7128 230.731 64.4467C230.994 64.1805 231.143 63.8193 231.144 63.4424L231.163 51.2715C231.162 50.8949 231.015 50.5337 230.752 50.267C230.49 50.0003 230.134 49.8496 229.763 49.8479Z" fill="#D6D6E3"/>
<path d="M231.109 71.767C231.05 71.4394 230.88 71.1431 230.628 70.929C230.376 70.715 230.059 70.5967 229.73 70.5944L217.725 70.5755C217.353 70.5751 216.996 70.7244 216.733 70.9905C216.47 71.2566 216.321 71.6178 216.321 71.9947L216.301 84.165C216.301 84.3518 216.336 84.5368 216.406 84.7096C216.477 84.8823 216.58 85.0393 216.71 85.1716C216.84 85.3039 216.994 85.4088 217.164 85.4804C217.335 85.5519 217.517 85.5887 217.701 85.5886L229.707 85.6075C230.078 85.6079 230.435 85.4587 230.698 85.1926C230.962 84.9265 231.11 84.5653 231.111 84.1883L231.13 72.0204C231.131 71.936 231.124 71.8517 231.109 71.7687L231.109 71.767Z" fill="#D6D6E3"/>
<path d="M230.242 91.4526C230.069 91.3798 229.884 91.3423 229.698 91.3421L217.692 91.3232C217.508 91.3225 217.325 91.3588 217.155 91.4298C216.985 91.5008 216.83 91.6053 216.699 91.7371C216.569 91.869 216.465 92.0257 216.395 92.1982C216.324 92.3707 216.288 92.5557 216.288 92.7424L216.269 104.914C216.267 105.101 216.303 105.286 216.373 105.459C216.443 105.632 216.546 105.789 216.676 105.922C216.806 106.054 216.961 106.159 217.131 106.23C217.301 106.302 217.484 106.338 217.669 106.337L229.674 106.356C230.046 106.357 230.402 106.207 230.666 105.941C230.929 105.675 231.077 105.314 231.078 104.937L231.097 92.7663C231.097 92.4865 231.016 92.2129 230.864 91.9794C230.712 91.7459 230.496 91.5627 230.242 91.4526Z" fill="#D6D6E3"/>
<path d="M255.045 8.39286L243.04 8.37396C242.668 8.37353 242.311 8.52277 242.048 8.78889C241.785 9.05501 241.636 9.41621 241.636 9.79314L241.617 21.9687C241.617 22.155 241.653 22.3393 241.723 22.5113C241.794 22.6833 241.897 22.8395 242.027 22.9711C242.157 23.1026 242.311 23.2069 242.481 23.278C242.651 23.3491 242.833 23.3855 243.016 23.3853L255.022 23.4042C255.392 23.4049 255.748 23.2567 256.012 22.9921C256.275 22.7274 256.424 22.3678 256.426 21.9921L256.445 9.81646C256.445 9.43981 256.297 9.07868 256.035 8.81194C255.773 8.5452 255.417 8.39453 255.045 8.39286Z" fill="#D6D6E3"/>
<path d="M255.013 29.1399L243.007 29.121C242.823 29.1208 242.641 29.1574 242.47 29.2287C242.3 29.3 242.145 29.4046 242.015 29.5366C241.885 29.6686 241.781 29.8253 241.71 29.9978C241.64 30.1703 241.603 30.3552 241.603 30.542L241.584 42.7176C241.584 42.9038 241.62 43.0882 241.691 43.2602C241.761 43.4322 241.864 43.5884 241.994 43.72C242.124 43.8515 242.279 43.9558 242.448 44.0269C242.618 44.0979 242.8 44.1344 242.984 44.1341L254.989 44.153C255.36 44.1538 255.716 44.0056 255.979 43.7409C256.242 43.4763 256.391 43.1167 256.394 42.7409L256.413 30.5653C256.412 30.1887 256.265 29.8275 256.002 29.5608C255.74 29.2941 255.384 29.1434 255.013 29.1417L255.013 29.1399Z" fill="#212832"/>
<path d="M254.98 49.8876L242.975 49.8687C242.603 49.8683 242.246 50.0175 241.983 50.2837C241.72 50.5498 241.571 50.911 241.571 51.2879L241.551 63.4588C241.551 63.6456 241.586 63.8306 241.656 64.0034C241.726 64.1761 241.83 64.3331 241.96 64.4654C242.09 64.5976 242.244 64.7026 242.414 64.7741C242.585 64.8457 242.767 64.8825 242.951 64.8824L254.957 64.9013C255.328 64.9017 255.685 64.7525 255.948 64.4864C256.212 64.2202 256.36 63.859 256.361 63.4821L256.38 51.3112C256.38 50.9346 256.232 50.5734 255.97 50.3067C255.708 50.04 255.352 49.8893 254.98 49.8876Z" fill="#212832"/>
<path d="M254.947 70.6348L242.942 70.6159C242.648 70.6152 242.361 70.7087 242.123 70.883C241.884 71.0574 241.706 71.3037 241.614 71.5867C241.564 71.7307 241.538 71.8823 241.538 72.0351L241.519 84.2053C241.518 84.3921 241.554 84.5772 241.624 84.7499C241.694 84.9226 241.797 85.0797 241.927 85.2119C242.057 85.3442 242.211 85.4491 242.382 85.5207C242.552 85.5923 242.734 85.629 242.918 85.6289L254.924 85.6478C255.296 85.6483 255.652 85.499 255.916 85.2329C256.179 84.9668 256.327 84.6056 256.328 84.2287L256.347 72.0601C256.347 71.6832 256.2 71.3217 255.937 71.0546C255.675 70.7876 255.319 70.6366 254.947 70.6348Z" fill="#212832"/>
<path d="M254.915 91.3824L242.909 91.3635C242.725 91.3628 242.543 91.399 242.372 91.4701C242.202 91.5411 242.047 91.6455 241.916 91.7774C241.786 91.9093 241.682 92.0659 241.612 92.2385C241.541 92.411 241.505 92.5959 241.505 92.7827L241.486 104.954C241.485 105.14 241.521 105.325 241.591 105.498C241.661 105.671 241.764 105.828 241.894 105.96C242.024 106.092 242.179 106.197 242.349 106.269C242.519 106.34 242.702 106.377 242.886 106.377L254.891 106.396C255.263 106.397 255.62 106.247 255.883 105.981C256.146 105.715 256.295 105.354 256.296 104.977L256.315 92.806C256.315 92.4291 256.168 92.0674 255.905 91.8005C255.643 91.5335 255.287 91.3832 254.915 91.3824Z" fill="#D6D6E3"/>
<path d="M280.263 8.43258L268.257 8.41368C267.885 8.41325 267.528 8.56249 267.265 8.82861C267.001 9.09473 266.853 9.45593 266.852 9.83286L266.833 22.0085C266.833 22.1947 266.87 22.379 266.94 22.551C267.01 22.723 267.114 22.8793 267.244 23.0108C267.374 23.1424 267.528 23.2467 267.698 23.3177C267.867 23.3888 268.049 23.4252 268.233 23.425L280.238 23.4439C280.609 23.4446 280.965 23.2964 281.228 23.0318C281.491 22.7671 281.64 22.4076 281.643 22.0318L281.662 9.85618C281.661 9.47953 281.514 9.1184 281.252 8.85166C280.989 8.58491 280.634 8.43425 280.263 8.43258Z" fill="#212832"/>
<path d="M280.23 29.1796L268.224 29.1607C268.04 29.1606 267.857 29.1973 267.687 29.2686C267.517 29.3399 267.362 29.4446 267.232 29.5765C267.102 29.7085 266.998 29.8652 266.927 30.0376C266.857 30.2101 266.82 30.395 266.82 30.5817L266.801 42.7573C266.801 42.9435 266.837 43.1279 266.908 43.2999C266.978 43.4719 267.081 43.6281 267.211 43.7597C267.341 43.8912 267.496 43.9955 267.666 44.0666C267.835 44.1376 268.017 44.1741 268.201 44.1738L280.206 44.1927C280.577 44.1935 280.933 44.0453 281.196 43.7806C281.459 43.516 281.608 43.1564 281.611 42.7806L281.63 30.605C281.629 30.2284 281.482 29.8672 281.22 29.6005C280.957 29.3338 280.601 29.1831 280.23 29.1814L280.23 29.1796Z" fill="#212832"/>
<path d="M280.197 49.9273L268.191 49.9084C267.82 49.908 267.463 50.0572 267.2 50.3234C266.936 50.5895 266.788 50.9507 266.787 51.3276L266.768 63.4985C266.767 63.6853 266.803 63.8703 266.873 64.0431C266.943 64.2158 267.046 64.3728 267.176 64.5051C267.306 64.6373 267.461 64.7423 267.631 64.8138C267.801 64.8854 267.984 64.9222 268.168 64.9221L280.173 64.941C280.545 64.9414 280.902 64.7922 281.165 64.5261C281.428 64.2599 281.577 63.8987 281.577 63.5218L281.597 51.3509C281.596 50.9744 281.449 50.6133 281.187 50.3466C280.924 50.0799 280.569 49.9292 280.197 49.9273Z" fill="#D6D6E3"/>
<path d="M280.165 70.6744L268.159 70.6555C267.787 70.6551 267.43 70.8043 267.167 71.0705C266.904 71.3366 266.755 71.6978 266.754 72.0747L266.735 84.245C266.735 84.4318 266.77 84.6168 266.84 84.7896C266.91 84.9623 267.014 85.1193 267.144 85.2516C267.274 85.3839 267.428 85.4888 267.598 85.5604C267.769 85.6319 267.951 85.6687 268.135 85.6686L280.141 85.6875C280.512 85.6879 280.869 85.5387 281.132 85.2726C281.396 85.0065 281.544 84.6453 281.545 84.2683L281.564 72.0998C281.564 71.723 281.417 71.3615 281.155 71.0944C280.892 70.8272 280.536 70.6763 280.165 70.6744Z" fill="#212832"/>
<path d="M280.132 91.4221L268.126 91.4032C267.942 91.4025 267.759 91.4387 267.589 91.5098C267.419 91.5808 267.264 91.6852 267.133 91.8171C267.003 91.949 266.899 92.1056 266.829 92.2782C266.758 92.4507 266.722 92.6356 266.722 92.8224L266.703 104.993C266.702 105.18 266.738 105.365 266.808 105.538C266.878 105.711 266.981 105.868 267.111 106C267.241 106.132 267.395 106.237 267.566 106.309C267.736 106.38 267.918 106.417 268.103 106.417L280.108 106.436C280.48 106.436 280.836 106.287 281.1 106.021C281.363 105.755 281.511 105.393 281.512 105.017L281.531 92.8457C281.532 92.4688 281.385 92.1071 281.122 91.8402C280.86 91.5732 280.504 91.4229 280.132 91.4221Z" fill="#212832"/>
<path d="M305.48 8.47227L293.475 8.45336C293.103 8.45294 292.746 8.60218 292.483 8.8683C292.219 9.13441 292.071 9.49562 292.07 9.87255L292.051 22.0481C292.051 22.2343 292.088 22.4187 292.158 22.5906C292.229 22.7626 292.332 22.9188 292.462 23.0503C292.592 23.1819 292.746 23.2862 292.916 23.3573C293.086 23.4283 293.267 23.4648 293.451 23.4647L305.456 23.4836C305.827 23.4843 306.183 23.3361 306.446 23.0715C306.709 22.8068 306.858 22.4473 306.861 22.0715L306.88 9.89587C306.879 9.51922 306.732 9.15809 306.47 8.89134C306.207 8.6246 305.852 8.47394 305.48 8.47227Z" fill="#212832"/>
<path d="M293.442 28.9276L305.448 28.9465C305.89 28.9494 306.314 29.1292 306.627 29.447C306.939 29.7647 307.115 30.1947 307.117 30.6434L307.098 42.8202C307.095 43.2684 306.917 43.6973 306.604 44.0133C306.29 44.3294 305.866 44.5068 305.424 44.5071L293.414 44.4882C292.972 44.4875 292.548 44.3089 292.236 43.9917C291.924 43.6746 291.749 43.2447 291.749 42.7966L291.768 30.6198C291.769 30.1706 291.946 29.7402 292.26 29.423C292.574 29.1059 292.999 28.9277 293.442 28.9276ZM305.424 43.9596C305.724 43.9596 306.011 43.8395 306.223 43.6256C306.436 43.4116 306.556 43.1211 306.558 42.8175L306.578 30.6426C306.576 30.3385 306.457 30.0472 306.245 29.8319C306.033 29.6167 305.746 29.4948 305.446 29.4928L293.442 29.4739C293.141 29.4741 292.854 29.5947 292.641 29.8096C292.428 30.0244 292.309 30.3158 292.307 30.6201L292.288 42.7957C292.288 43.0988 292.407 43.3896 292.618 43.6042C292.829 43.8188 293.116 43.9396 293.415 43.9401L305.424 43.9596Z" fill="#D6D6E3"/>
<path d="M293.41 49.6747L305.415 49.6936C305.858 49.6965 306.281 49.8763 306.594 50.1941C306.906 50.5118 307.083 50.9418 307.084 51.3905L307.065 63.5614C307.064 64.0106 306.887 64.441 306.573 64.7582C306.259 65.0754 305.834 65.2535 305.391 65.2536L293.382 65.2347C293.163 65.2349 292.946 65.1911 292.744 65.1057C292.541 65.0203 292.357 64.8951 292.203 64.7372C291.891 64.4178 291.716 63.9863 291.716 63.5366L291.735 51.3669C291.737 50.9177 291.914 50.4873 292.228 50.1701C292.542 49.8529 292.967 49.6748 293.41 49.6747ZM305.391 64.7067C305.692 64.7065 305.979 64.5859 306.192 64.371C306.405 64.1562 306.525 63.8648 306.526 63.5605L306.545 51.3902C306.543 51.0862 306.424 50.7949 306.212 50.5796C306 50.3644 305.713 50.2425 305.413 50.2405L293.409 50.2216C293.109 50.2217 292.821 50.3425 292.608 50.5575C292.396 50.7724 292.276 51.064 292.275 51.3684L292.256 63.5386C292.255 63.8432 292.374 64.1355 292.585 64.3518C292.689 64.4586 292.814 64.5434 292.951 64.6011C293.088 64.6589 293.235 64.6885 293.383 64.6884L305.391 64.7067Z" fill="#D6D6E3"/>
<path d="M305.382 70.7141L293.377 70.6952C293.005 70.6948 292.648 70.844 292.385 71.1102C292.121 71.3763 291.973 71.7375 291.972 72.1144L291.953 84.2847C291.952 84.4715 291.988 84.6565 292.058 84.8293C292.128 85.002 292.231 85.159 292.361 85.2913C292.491 85.4236 292.646 85.5285 292.816 85.6001C292.986 85.6716 293.169 85.7084 293.353 85.7083L305.358 85.7272C305.73 85.7276 306.087 85.5784 306.35 85.3123C306.614 85.0462 306.762 84.685 306.763 84.308L306.782 72.1395C306.782 71.7626 306.634 71.401 306.372 71.1338C306.11 70.8667 305.754 70.7158 305.382 70.7141Z" fill="#D6D6E3"/>
<path d="M305.349 91.4618L293.344 91.4429C293.16 91.4423 292.977 91.4785 292.807 91.5495C292.636 91.6205 292.481 91.725 292.351 91.8568C292.22 91.9887 292.117 92.1454 292.046 92.3179C291.976 92.4904 291.939 92.6754 291.94 92.8621L291.92 105.033C291.92 105.22 291.956 105.405 292.026 105.577C292.096 105.75 292.199 105.907 292.329 106.039C292.459 106.172 292.613 106.277 292.784 106.348C292.954 106.42 293.136 106.457 293.32 106.457L305.326 106.476C305.697 106.476 306.054 106.327 306.318 106.061C306.581 105.794 306.729 105.433 306.73 105.056L306.749 92.8854C306.75 92.5085 306.602 92.1468 306.34 91.8799C306.077 91.613 305.721 91.4626 305.349 91.4618Z" fill="#212832"/>
<path d="M318.686 8.21965L330.698 8.23856C331.14 8.24143 331.564 8.42127 331.877 8.73901C332.189 9.05675 332.365 9.48671 332.367 9.93544L332.348 22.1122C332.345 22.5604 332.167 22.9893 331.854 23.3054C331.54 23.6214 331.116 23.7989 330.674 23.7991L318.662 23.7802C318.22 23.7787 317.797 23.5998 317.485 23.2826C317.174 22.9654 316.999 22.5358 316.999 22.088L317.018 9.91185C317.019 9.46366 317.195 9.03419 317.508 8.71716C317.82 8.40013 318.244 8.22129 318.686 8.21965ZM330.674 23.2516C330.974 23.2516 331.261 23.1316 331.473 22.9176C331.686 22.7037 331.806 22.4132 331.808 22.1096L331.827 9.93459C331.826 9.6305 331.706 9.33922 331.495 9.12397C331.283 8.90872 330.996 8.78686 330.696 8.78484L318.687 8.76594C318.387 8.76702 318.1 8.88814 317.889 9.10287C317.677 9.3176 317.558 9.60852 317.557 9.91212L317.538 22.0877C317.538 22.3906 317.656 22.6812 317.867 22.8957C318.078 23.1102 318.364 23.2312 318.663 23.2321L330.674 23.2516Z" fill="#D6D6E3"/>
<path d="M318.653 28.9673L330.665 28.9862C331.108 28.9891 331.531 29.1689 331.844 29.4867C332.156 29.8044 332.333 30.2344 332.334 30.6831L332.315 42.8599C332.312 43.3081 332.135 43.737 331.821 44.0531C331.507 44.3691 331.083 44.5466 330.641 44.5468L318.629 44.5279C318.188 44.5266 317.764 44.3477 317.453 44.0304C317.141 43.7132 316.966 43.2836 316.966 42.8357L316.985 30.6595C316.987 30.2114 317.163 29.7819 317.475 29.4649C317.788 29.1478 318.211 28.969 318.653 28.9673ZM318.63 43.9804L330.641 43.9993C330.94 43.9993 331.228 43.8792 331.44 43.6653C331.653 43.4513 331.773 43.1609 331.775 42.8573L331.794 30.6823C331.793 30.3782 331.673 30.0869 331.461 29.8716C331.25 29.6564 330.962 29.5345 330.662 29.5325L318.654 29.5136C318.355 29.5147 318.068 29.6358 317.856 29.8506C317.644 30.0653 317.525 30.3562 317.524 30.6598L317.505 42.8354C317.505 43.1385 317.623 43.4292 317.834 43.6439C318.045 43.8586 318.331 43.9796 318.63 43.9804Z" fill="#D6D6E3"/>
<path d="M318.621 49.7144L330.632 49.7333C331.075 49.7362 331.499 49.916 331.811 50.2338C332.124 50.5515 332.3 50.9815 332.301 51.4302L332.282 63.6011C332.281 64.0503 332.104 64.4807 331.79 64.7979C331.476 65.1151 331.051 65.2932 330.608 65.2933L318.597 65.2744C318.378 65.2739 318.161 65.2295 317.958 65.1439C317.756 65.0582 317.572 64.933 317.418 64.7752C317.263 64.6175 317.141 64.4304 317.058 64.2247C316.975 64.019 316.932 63.7986 316.933 63.5763L316.952 51.4066C316.954 50.9584 317.13 50.529 317.442 50.2119C317.755 49.8949 318.178 49.7161 318.621 49.7144ZM318.597 64.7275L330.607 64.7464C330.908 64.7462 331.195 64.6256 331.408 64.4107C331.621 64.1959 331.741 63.9045 331.742 63.6002L331.761 51.4299C331.759 51.1259 331.64 50.8346 331.428 50.6193C331.216 50.4041 330.929 50.2822 330.629 50.2802L318.621 50.2613C318.322 50.2624 318.035 50.3835 317.823 50.5982C317.612 50.813 317.492 51.1039 317.491 51.4075L317.472 63.5777C317.471 63.7282 317.5 63.8773 317.556 64.0165C317.612 64.1557 317.695 64.2824 317.8 64.3892C317.904 64.496 318.028 64.5808 318.165 64.6389C318.302 64.6969 318.449 64.727 318.597 64.7275Z" fill="#D6D6E3"/>
<path d="M330.599 70.7538L318.589 70.7349C318.218 70.7361 317.863 70.886 317.601 71.152C317.339 71.418 317.192 71.7783 317.191 72.1541L317.172 84.3244C317.171 84.5106 317.207 84.6952 317.276 84.8675C317.346 85.0399 317.448 85.1966 317.578 85.3288C317.707 85.4611 317.861 85.5661 318.03 85.638C318.2 85.71 318.381 85.7473 318.565 85.748L330.576 85.7669C330.947 85.7674 331.304 85.6181 331.567 85.352C331.831 85.0859 331.979 84.7247 331.98 84.3477L331.999 72.1792C331.998 71.8026 331.851 71.4416 331.589 71.1749C331.326 70.9081 330.971 70.7574 330.599 70.7556L330.599 70.7538Z" fill="#212832"/>
<path d="M330.567 91.5015L318.556 91.4826C318.372 91.4828 318.191 91.5196 318.021 91.5911C317.851 91.6625 317.697 91.7671 317.567 91.8988C317.438 92.0306 317.335 92.187 317.265 92.3591C317.195 92.5312 317.158 92.7156 317.159 92.9018L317.139 105.073C317.139 105.259 317.174 105.443 317.244 105.616C317.313 105.788 317.416 105.945 317.545 106.077C317.674 106.209 317.828 106.314 317.998 106.386C318.167 106.458 318.349 106.496 318.532 106.496L330.543 106.515C330.915 106.516 331.272 106.366 331.535 106.1C331.798 105.834 331.947 105.473 331.947 105.096L331.966 92.9251C331.967 92.5482 331.82 92.1865 331.557 91.9196C331.295 91.6526 330.938 91.5023 330.567 91.5015Z" fill="#D6D6E3"/>
<path d="M343.903 8.25935L355.917 8.27827C356.359 8.28113 356.783 8.46097 357.096 8.77871C357.408 9.09646 357.584 9.52641 357.586 9.97514L357.567 22.1519C357.564 22.6001 357.386 23.029 357.073 23.3451C356.759 23.6611 356.335 23.8386 355.893 23.8388L343.879 23.8199C343.438 23.8186 343.014 23.6397 342.703 23.3225C342.391 23.0052 342.216 22.5756 342.216 22.1277L342.235 9.95155C342.236 9.50336 342.413 9.07389 342.725 8.75686C343.038 8.43983 343.461 8.26099 343.903 8.25935ZM355.893 23.2913C356.193 23.2913 356.48 23.1713 356.692 22.9573C356.905 22.7434 357.025 22.4529 357.027 22.1493L357.046 9.9743C357.045 9.6702 356.926 9.37893 356.714 9.16368C356.502 8.94842 356.215 8.82657 355.915 8.82455L343.904 8.80564C343.605 8.80672 343.318 8.92784 343.106 9.14257C342.894 9.35731 342.775 9.64822 342.774 9.95182L342.755 22.1274C342.755 22.4303 342.873 22.7209 343.084 22.9354C343.295 23.1499 343.581 23.2709 343.88 23.2718L355.893 23.2913Z" fill="#D6D6E3"/>
<path d="M343.871 29.007L355.884 29.0259C356.327 29.0288 356.75 29.2086 357.063 29.5264C357.375 29.8441 357.552 30.2741 357.553 30.7228L357.534 42.8996C357.531 43.3478 357.354 43.7767 357.04 44.0927C356.726 44.4088 356.302 44.5862 355.86 44.5865L343.847 44.5676C343.405 44.5661 342.982 44.3871 342.67 44.07C342.358 43.7528 342.183 43.3232 342.183 42.8754L342.202 30.6992C342.204 30.251 342.38 29.8216 342.692 29.5045C343.005 29.1875 343.428 29.0087 343.871 29.007ZM343.847 44.0201L355.86 44.039C356.16 44.039 356.447 43.9189 356.66 43.705C356.872 43.491 356.993 43.2006 356.995 42.897L357.014 30.722C357.012 30.4179 356.893 30.1266 356.681 29.9113C356.469 29.6961 356.182 29.5742 355.882 29.5722L343.871 29.5533C343.572 29.5544 343.285 29.6755 343.073 29.8903C342.862 30.105 342.742 30.3959 342.741 30.6995L342.722 42.8751C342.722 43.1781 342.84 43.4688 343.051 43.6834C343.262 43.8981 343.549 44.0192 343.848 44.0201L343.847 44.0201Z" fill="#D6D6E3"/>
<path d="M355.849 50.0465L343.839 50.0276C343.468 50.0287 343.113 50.1787 342.851 50.4446C342.589 50.7106 342.442 51.0709 342.441 51.4468L342.422 63.6176C342.421 63.8038 342.457 63.9884 342.526 64.1608C342.596 64.3331 342.698 64.4898 342.828 64.6221C342.957 64.7543 343.111 64.8593 343.28 64.9312C343.45 65.0032 343.631 65.0405 343.815 65.0412L355.826 65.0601C356.197 65.0606 356.554 64.9113 356.818 64.6452C357.081 64.3791 357.229 64.0179 357.23 63.6409L357.249 51.4701C357.249 51.0934 357.101 50.7323 356.839 50.4655C356.577 50.1988 356.221 50.0481 355.849 50.0465Z" fill="#212832"/>
<path d="M355.816 70.7936L343.806 70.7747C343.435 70.7759 343.08 70.926 342.818 71.1919C342.556 71.4579 342.409 71.8181 342.409 72.1939L342.389 84.3642C342.389 84.5504 342.424 84.7349 342.494 84.9073C342.563 85.0796 342.665 85.2364 342.795 85.3686C342.924 85.5008 343.078 85.6059 343.247 85.6778C343.417 85.7497 343.599 85.7871 343.782 85.7877L355.793 85.8067C356.165 85.8071 356.521 85.6578 356.785 85.3917C357.048 85.1256 357.196 84.7644 357.197 84.3875L357.216 72.2189C357.216 71.8423 357.068 71.4812 356.806 71.2144C356.544 70.9477 356.188 70.797 355.816 70.7953L355.816 70.7936Z" fill="#D6D6E3"/>
<path d="M343.773 91.2489L355.786 91.2678C356.229 91.2693 356.654 91.4488 356.967 91.7669C357.28 92.0851 357.455 92.516 357.455 92.9653L357.436 105.136C357.435 105.585 357.258 106.015 356.944 106.332C356.63 106.65 356.205 106.828 355.762 106.828L343.749 106.809C343.53 106.808 343.313 106.764 343.11 106.678C342.908 106.593 342.724 106.467 342.57 106.31C342.415 106.152 342.293 105.965 342.21 105.759C342.127 105.553 342.084 105.333 342.085 105.11L342.105 92.9411C342.104 92.7189 342.147 92.4988 342.231 92.2935C342.315 92.0881 342.438 91.9015 342.593 91.7443C342.748 91.5872 342.932 91.4625 343.134 91.3775C343.337 91.2925 343.554 91.2488 343.773 91.2489ZM355.762 106.281C356.063 106.281 356.351 106.16 356.563 105.945C356.776 105.73 356.896 105.438 356.897 105.134L356.916 92.9644C356.916 92.6601 356.797 92.3682 356.585 92.1527C356.373 91.9371 356.085 91.8156 355.785 91.8147L343.775 91.7958C343.626 91.7957 343.479 91.8253 343.342 91.8828C343.205 91.9404 343.081 92.0248 342.976 92.1312C342.871 92.2376 342.788 92.3639 342.731 92.5029C342.674 92.642 342.645 92.7909 342.645 92.9414L342.626 105.112C342.625 105.263 342.654 105.412 342.71 105.551C342.766 105.69 342.849 105.817 342.953 105.924C343.058 106.031 343.182 106.115 343.319 106.173C343.456 106.232 343.603 106.262 343.751 106.262L355.762 106.281Z" fill="#D6D6E3"/>
<path d="M381.132 8.5914L369.121 8.57249C368.751 8.57362 368.395 8.72359 368.133 8.98957C367.872 9.25556 367.724 9.61588 367.724 9.99169L367.705 22.1673C367.704 22.5424 367.85 22.9024 368.112 23.168C368.373 23.4337 368.728 23.5832 369.098 23.5838L381.109 23.6027C381.479 23.6035 381.835 23.4553 382.099 23.1906C382.362 22.926 382.511 22.5664 382.513 22.1906L382.532 10.015C382.532 9.63826 382.384 9.27703 382.122 9.01027C381.859 8.74351 381.503 8.59292 381.132 8.5914Z" fill="#212832"/>
<path d="M381.099 29.3385L369.089 29.3196C368.718 29.3207 368.363 29.4707 368.101 29.7367C367.839 30.0027 367.692 30.363 367.691 30.7388L367.672 42.9144C367.671 43.2895 367.818 43.6494 368.079 43.9151C368.34 44.1807 368.695 44.3303 369.065 44.3309L381.076 44.3498C381.447 44.3506 381.803 44.2024 382.066 43.9377C382.329 43.6731 382.478 43.3135 382.48 42.9377L382.5 30.7639C382.5 30.3868 382.352 30.0251 382.09 29.758C381.827 29.4909 381.471 29.34 381.099 29.3385Z" fill="#212832"/>
<path d="M381.066 50.0861L369.056 50.0672C368.685 50.0684 368.33 50.2183 368.068 50.4843C367.806 50.7503 367.659 51.1106 367.659 51.4864L367.639 63.6573C367.639 63.8435 367.674 64.0281 367.744 64.2004C367.813 64.3728 367.915 64.5295 368.045 64.6617C368.174 64.7939 368.328 64.899 368.497 64.9709C368.667 65.0428 368.849 65.0802 369.032 65.0809L381.043 65.0998C381.415 65.1002 381.771 64.951 382.035 64.6849C382.298 64.4188 382.446 64.0575 382.447 63.6806L382.466 51.5097C382.466 51.1331 382.318 50.772 382.056 50.5052C381.794 50.2385 381.438 50.0878 381.066 50.0861Z" fill="#D6D6E3"/>
<path d="M369.022 70.5409L381.034 70.5598C381.477 70.5627 381.9 70.7426 382.213 71.0603C382.526 71.378 382.702 71.808 382.703 72.2567L382.684 84.4276C382.683 84.8768 382.506 85.3072 382.192 85.6244C381.878 85.9416 381.453 86.1197 381.01 86.1198L369.002 86.1009C368.782 86.1004 368.565 86.056 368.363 85.9704C368.16 85.8847 367.977 85.7595 367.822 85.6018C367.668 85.444 367.545 85.2569 367.462 85.0512C367.379 84.8455 367.337 84.6252 367.338 84.4028L367.357 72.2331C367.358 71.7854 367.534 71.3564 367.846 71.0394C368.158 70.7225 368.581 70.5433 369.022 70.5409ZM381.011 85.5729C381.311 85.5728 381.599 85.4521 381.811 85.2373C382.024 85.0224 382.144 84.731 382.145 84.4267L382.164 72.2565C382.163 71.9524 382.043 71.6611 381.831 71.4458C381.619 71.2306 381.332 71.1087 381.032 71.1067L369.025 71.0878C368.726 71.0889 368.439 71.21 368.227 71.4248C368.015 71.6395 367.896 71.9304 367.895 72.234L367.876 84.4043C367.875 84.5548 367.904 84.7039 367.96 84.8432C368.016 84.9824 368.099 85.1091 368.204 85.2159C368.308 85.3227 368.432 85.4075 368.569 85.4655C368.706 85.5236 368.853 85.5536 369.002 85.554L381.011 85.5729Z" fill="#D6D6E3"/>
<path d="M381.001 91.581L368.991 91.5621C368.807 91.5622 368.625 91.599 368.455 91.6704C368.286 91.7417 368.131 91.8463 368.002 91.9781C367.872 92.1099 367.769 92.2664 367.699 92.4385C367.629 92.6106 367.593 92.795 367.593 92.9813L367.574 105.152C367.573 105.338 367.609 105.523 367.678 105.695C367.748 105.868 367.85 106.024 367.979 106.157C368.109 106.289 368.263 106.394 368.432 106.466C368.601 106.538 368.783 106.575 368.967 106.576L380.977 106.595C381.349 106.595 381.706 106.446 381.969 106.18C382.233 105.914 382.381 105.552 382.382 105.175L382.401 93.0046C382.401 92.6277 382.254 92.266 381.992 91.999C381.729 91.7321 381.373 91.5817 381.001 91.581Z" fill="#212832"/>
<path d="M406.349 8.63111L394.339 8.6122C393.968 8.61333 393.613 8.76329 393.351 9.02928C393.089 9.29526 392.942 9.65559 392.941 10.0314L392.922 22.207C392.921 22.5821 393.068 22.9421 393.329 23.2077C393.59 23.4734 393.945 23.6229 394.315 23.6235L406.326 23.6424C406.697 23.6432 407.053 23.495 407.316 23.2303C407.579 22.9657 407.728 22.6061 407.73 22.2303L407.75 10.0547C407.749 9.67796 407.601 9.31673 407.339 9.04997C407.077 8.78321 406.721 8.63263 406.349 8.63111Z" fill="#212832"/>
<path d="M406.316 29.3782L394.306 29.3593C393.935 29.3604 393.58 29.5104 393.318 29.7764C393.056 30.0423 392.909 30.4027 392.909 30.7785L392.889 42.9541C392.889 43.3292 393.035 43.6891 393.296 43.9548C393.558 44.2204 393.912 44.37 394.282 44.3706L406.293 44.3895C406.664 44.3902 407.02 44.2421 407.283 43.9774C407.546 43.7128 407.695 43.3532 407.698 42.9774L407.717 30.8036C407.717 30.4265 407.57 30.0648 407.307 29.7977C407.045 29.5305 406.688 29.3797 406.316 29.3782Z" fill="#212832"/>
<path d="M406.284 50.1259L394.273 50.107C393.902 50.1081 393.547 50.2581 393.285 50.524C393.023 50.79 392.876 51.1504 392.876 51.5262L392.857 63.697C392.856 63.8833 392.891 64.0678 392.961 64.2402C393.03 64.4125 393.133 64.5693 393.262 64.7015C393.391 64.8337 393.545 64.9387 393.715 65.0107C393.884 65.0826 394.066 65.1199 394.249 65.1206L406.26 65.1395C406.632 65.14 406.989 64.9907 407.252 64.7246C407.515 64.4585 407.664 64.0973 407.664 63.7204L407.684 51.5495C407.683 51.1728 407.536 50.8117 407.273 50.545C407.011 50.2782 406.655 50.1275 406.284 50.1259Z" fill="#D6D6E3"/>
<path d="M406.251 70.8729L394.241 70.854C393.87 70.8552 393.515 71.0051 393.253 71.2711C392.991 71.5371 392.844 71.8974 392.843 72.2732L392.824 84.4435C392.823 84.6298 392.859 84.8143 392.928 84.9866C392.998 85.159 393.1 85.3157 393.229 85.448C393.359 85.5802 393.513 85.6852 393.682 85.7572C393.851 85.8291 394.033 85.8664 394.217 85.8671L406.227 85.886C406.599 85.8865 406.956 85.7372 407.219 85.4711C407.483 85.205 407.631 84.8438 407.632 84.4668L407.651 72.2983C407.65 71.9217 407.503 71.5605 407.241 71.2938C406.978 71.0271 406.623 70.8764 406.251 70.8747L406.251 70.8729Z" fill="#212832"/>
<path d="M406.218 91.6207L394.208 91.6017C394.024 91.6018 393.842 91.6386 393.673 91.71C393.503 91.7814 393.349 91.886 393.219 92.0178C393.089 92.1496 392.986 92.306 392.916 92.4782C392.846 92.6503 392.81 92.8347 392.81 93.0209L392.791 105.192C392.79 105.378 392.826 105.563 392.895 105.735C392.965 105.907 393.067 106.064 393.197 106.196C393.326 106.328 393.48 106.434 393.649 106.505C393.819 106.577 394 106.615 394.184 106.615L406.195 106.634C406.567 106.635 406.923 106.486 407.187 106.219C407.45 105.953 407.598 105.592 407.599 105.215L407.618 93.0443C407.619 92.6673 407.471 92.3057 407.209 92.0387C406.946 91.7718 406.59 91.6214 406.218 91.6207Z" fill="#212832"/>
<path d="M431.566 8.67081L419.556 8.6519C419.185 8.65303 418.83 8.803 418.568 9.06898C418.306 9.33496 418.159 9.69529 418.158 10.0711L418.139 22.2467C418.139 22.6218 418.285 22.9818 418.546 23.2474C418.808 23.5131 419.162 23.6626 419.532 23.6632L431.543 23.6821C431.914 23.6829 432.27 23.5347 432.533 23.27C432.796 23.0054 432.945 22.6458 432.948 22.27L432.967 10.0944C432.966 9.71766 432.819 9.35643 432.556 9.08967C432.294 8.82292 431.938 8.67233 431.566 8.67081Z" fill="#D6D6E3"/>
<path d="M431.534 29.4179L419.523 29.399C419.153 29.4001 418.797 29.5501 418.535 29.8161C418.274 30.0821 418.126 30.4424 418.126 30.8182L418.107 42.9938C418.106 43.3689 418.252 43.7288 418.514 43.9945C418.775 44.2601 419.13 44.4097 419.5 44.4103L431.511 44.4292C431.881 44.43 432.237 44.2818 432.501 44.0171C432.764 43.7525 432.913 43.3929 432.915 43.0171L432.934 30.8433C432.934 30.4662 432.787 30.1045 432.524 29.8374C432.262 29.5703 431.906 29.4194 431.534 29.4179Z" fill="#212832"/>
<path d="M431.501 50.1656L419.491 50.1467C419.12 50.1478 418.765 50.2978 418.503 50.5637C418.241 50.8297 418.094 51.1901 418.093 51.5659L418.074 63.7367C418.073 63.923 418.109 64.1075 418.178 64.2799C418.248 64.4522 418.35 64.609 418.479 64.7412C418.609 64.8734 418.763 64.9784 418.932 65.0504C419.101 65.1223 419.283 65.1597 419.467 65.1603L431.477 65.1792C431.849 65.1797 432.206 65.0304 432.469 64.7643C432.733 64.4982 432.881 64.137 432.882 63.7601L432.901 51.5892C432.9 51.2125 432.753 50.8514 432.491 50.5847C432.228 50.3179 431.873 50.1673 431.501 50.1656Z" fill="#212832"/>
<path d="M431.468 70.9126L419.458 70.8937C419.087 70.8949 418.732 71.0449 418.47 71.3108C418.208 71.5768 418.061 71.9371 418.06 72.3129L418.041 84.4832C418.04 84.6695 418.076 84.854 418.145 85.0263C418.215 85.1987 418.317 85.3555 418.447 85.4877C418.576 85.6199 418.73 85.7249 418.899 85.7969C419.069 85.8688 419.25 85.9061 419.434 85.9068L431.445 85.9257C431.816 85.9262 432.173 85.7769 432.437 85.5108C432.7 85.2447 432.848 84.8835 432.849 84.5066L432.868 72.338C432.868 71.9614 432.72 71.6002 432.458 71.3335C432.196 71.0668 431.84 70.9161 431.468 70.9144L431.468 70.9126Z" fill="#212832"/>
<path d="M431.436 91.6603L419.425 91.6414C419.241 91.6416 419.06 91.6784 418.89 91.7499C418.72 91.8213 418.566 91.9259 418.436 92.0577C418.307 92.1894 418.204 92.3458 418.134 92.5179C418.064 92.69 418.028 92.8744 418.028 93.0606L418.009 105.231C418.008 105.418 418.043 105.602 418.113 105.775C418.182 105.947 418.285 106.104 418.414 106.236C418.543 106.368 418.697 106.473 418.867 106.545C419.036 106.617 419.218 106.654 419.401 106.655L431.412 106.674C431.784 106.674 432.141 106.525 432.404 106.259C432.667 105.993 432.816 105.632 432.816 105.255L432.836 93.0839C432.836 92.707 432.689 92.3453 432.426 92.0784C432.164 91.8114 431.807 91.6611 431.436 91.6603Z" fill="#D6D6E3"/>
<path d="M456.783 8.71051L444.773 8.6916C444.402 8.69273 444.047 8.8427 443.785 9.10868C443.523 9.37467 443.376 9.73499 443.376 10.1108L443.356 22.2864C443.356 22.6615 443.502 23.0215 443.763 23.2871C444.025 23.5528 444.379 23.7023 444.749 23.7029L456.76 23.7218C457.131 23.7226 457.487 23.5744 457.75 23.3097C458.013 23.0451 458.163 22.6855 458.165 22.3097L458.184 10.1341C458.183 9.75747 458.036 9.39634 457.774 9.12959C457.511 8.86285 457.156 8.71219 456.784 8.71052L456.783 8.71051Z" fill="#D6D6E3"/>
<path d="M456.751 29.4576L444.74 29.4387C444.37 29.4398 444.014 29.5898 443.753 29.8558C443.491 30.1218 443.343 30.4821 443.343 30.8579L443.324 43.0335C443.323 43.4086 443.47 43.7685 443.731 44.0342C443.992 44.2998 444.347 44.4494 444.717 44.45L456.728 44.4689C457.099 44.4697 457.454 44.3215 457.718 44.0568C457.981 43.7922 458.13 43.4326 458.132 43.0568L458.151 30.883C458.151 30.5059 458.004 30.1442 457.741 29.8771C457.479 29.61 457.123 29.4591 456.751 29.4576Z" fill="#D6D6E3"/>
<path d="M456.718 50.2053L444.708 50.1864C444.337 50.1875 443.982 50.3375 443.72 50.6034C443.458 50.8694 443.311 51.2298 443.31 51.6056L443.291 63.7764C443.29 63.9627 443.326 64.1472 443.395 64.3196C443.465 64.4919 443.567 64.6487 443.697 64.7809C443.826 64.9131 443.98 65.0181 444.149 65.0901C444.319 65.162 444.5 65.1994 444.684 65.2L456.695 65.2189C457.066 65.2194 457.423 65.0701 457.687 64.804C457.95 64.5379 458.098 64.1767 458.099 63.7998L458.118 51.6289C458.118 51.2522 457.97 50.8911 457.708 50.6244C457.446 50.3576 457.09 50.207 456.718 50.2053Z" fill="#212832"/>
<path d="M456.686 70.9524L444.675 70.9335C444.304 70.9348 443.949 71.0848 443.687 71.3507C443.426 71.6167 443.278 71.9769 443.278 72.3527L443.259 84.523C443.258 84.7092 443.293 84.8937 443.363 85.0661C443.432 85.2384 443.535 85.3952 443.664 85.5274C443.793 85.6596 443.947 85.7647 444.117 85.8366C444.286 85.9085 444.468 85.9459 444.651 85.9466L456.662 85.9655C457.034 85.9659 457.391 85.8167 457.654 85.5505C457.917 85.2844 458.066 84.9232 458.066 84.5463L458.085 72.3778C458.085 72.0011 457.937 71.64 457.675 71.3732C457.413 71.1065 457.057 70.9558 456.686 70.9542L456.686 70.9524Z" fill="#D6D6E3"/>
<path d="M456.653 91.7L444.642 91.6811C444.459 91.6812 444.277 91.718 444.107 91.7894C443.938 91.8608 443.783 91.9654 443.654 92.0972C443.524 92.229 443.421 92.3854 443.351 92.5575C443.281 92.7297 443.245 92.9141 443.245 93.1003L443.226 105.271C443.225 105.457 443.261 105.642 443.33 105.814C443.4 105.987 443.502 106.143 443.632 106.275C443.761 106.408 443.915 106.513 444.084 106.585C444.253 106.657 444.435 106.694 444.619 106.695L456.629 106.714C457.001 106.714 457.358 106.565 457.621 106.299C457.885 106.033 458.033 105.671 458.034 105.295L458.053 93.1236C458.053 92.7467 457.906 92.385 457.644 92.1181C457.381 91.8511 457.025 91.7008 456.653 91.7Z" fill="#D6D6E3"/>
<path d="M153.196 160.694L120.913 160.643L120.865 191.032L153.148 191.083L153.196 160.694Z" fill="#ED9DA0"/>
<path d="M203.469 433C202.13 433.03 200.851 433.002 199.5 433C164 433 125 424 84.9007 395.378C81.877 393.27 85.2852 383.309 84.95 364.083L163.901 352.963L203.469 385.526L203.469 433Z" fill="#090814"/>
<path d="M163.094 391.801L162.763 391.8L163.047 391.763L163.094 391.801Z" fill="#2F2E41"/>
<path d="M134.954 166.758C155.134 166.789 171.519 150.231 171.551 129.773C171.584 109.316 155.25 92.7057 135.07 92.6739C114.89 92.6421 98.5044 109.201 98.4722 129.658C98.44 150.116 114.773 166.726 134.954 166.758Z" fill="#ED9DA0"/>
<path d="M167.053 102.608C167.053 102.608 176.639 84.1021 155.617 82.3854C155.617 82.3854 137.718 65.874 119.427 79.3153C119.427 79.3153 109.462 79.2996 103.994 90.7228C103.994 90.7228 96.1592 87.6973 94.4263 95.7591C94.4263 95.7591 88.6646 112.587 94.376 127.75C100.087 142.913 101.989 144.6 101.989 144.6C101.989 144.6 92.6153 112.815 115.557 111.167C138.498 109.52 164.19 95.0275 166.072 113.551C167.955 132.075 170.824 136.642 170.824 136.642C170.824 136.642 189.023 110.22 167.053 102.608Z" fill="#090814"/>
<path d="M229.388 221.154L229.272 221.782L227.94 228.851L218.733 277.741L218.189 280.619L217.045 286.705L215.481 295.009L212.013 313.412L211.021 318.685L210.649 320.663L210.519 321.358L209.489 326.816L209.176 328.463L206.655 347.18L206.625 365.855L206 378L205 390.008L203.5 390.008L82.6794 390.008C77.978 386.91 72.7653 355.986 76.2645 327.05L76.2438 326.6L75.9595 320.446L75.9233 319.654L75.8675 318.467L74.7761 294.783L74.7554 294.392L74.4243 287.213L74.1139 280.387L73.9795 277.508L72.6506 248.7L71.751 229.138L70.965 212.107L74.2347 210.99L109.204 199.003L123.709 179.948L153.84 180.223L168.591 180.36L193.169 203.541L198.765 206.26L198.807 206.282L202.82 208.235L212.995 213.179L223.753 218.412L229.274 221.093L229.388 221.154Z" fill="#F2F2F2"/>
<path d="M127.355 336.174C125.145 337.038 122.776 337.399 120.414 337.234C118.051 337.069 115.754 336.381 113.682 335.218C111.611 334.056 109.816 332.447 108.424 330.505C107.032 328.563 106.077 326.335 105.626 323.979L48.6495 315.692L68.4966 293.006L119.56 304.352C123.516 303.847 127.517 304.829 130.806 307.115C134.094 309.4 136.442 312.829 137.402 316.752C138.363 320.675 137.871 324.819 136.019 328.399C134.167 331.978 131.084 334.745 127.355 336.174Z" fill="#ED9DA0"/>
<path d="M102.012 294.83C100.959 293.471 99.4656 292.534 97.7966 292.183L74.4219 287.218L72.0212 286.71C70.6261 286.412 69.3087 285.82 68.1552 284.97C67.0017 284.121 66.0382 283.034 65.3276 281.782C64.5905 280.466 64.1456 279.004 64.024 277.497C63.9147 276.126 64.0788 274.747 64.5066 273.442L72.6483 248.705L77.9309 232.654C78.5711 230.718 78.9502 228.703 79.0581 226.665C79.3595 221.023 77.6461 215.46 74.2318 210.995C71.2299 207.07 67.0621 204.228 62.3442 202.889C57.6263 201.55 52.6086 201.785 48.0323 203.559C47.8985 203.608 47.7595 203.661 47.6257 203.715C44.3436 205.038 41.4099 207.116 39.0564 209.785C36.7028 212.455 34.994 215.643 34.0649 219.097L28.3202 240.151L16.4695 283.553C15.2832 287.901 15.0378 292.458 15.75 296.912C16.4621 301.366 18.1151 305.611 20.5958 309.356C23.0765 313.102 26.3263 316.261 30.1227 318.615C33.9192 320.97 38.1727 322.465 42.5921 322.998L76.2633 327.053L91.845 328.931C93.6468 329.154 95.4651 328.68 96.9376 327.604C98.4102 326.528 99.4289 324.929 99.7909 323.126C99.8159 323.028 99.8353 322.929 99.849 322.828L100.227 320.487L103.429 300.768L103.462 300.567C103.629 299.561 103.586 298.531 103.336 297.543C103.087 296.555 102.636 295.63 102.012 294.83Z" fill="#F2F2F2"/>
<path d="M163.658 336.863C165.963 337.409 168.359 337.436 170.676 336.943C172.994 336.449 175.176 335.446 177.07 334.005C178.963 332.563 180.522 330.719 181.637 328.601C182.751 326.483 183.394 324.143 183.52 321.746L238.826 305.571L216.081 285.875L167.048 304.254C163.061 304.306 159.231 305.839 156.284 308.562C153.337 311.286 151.478 315.011 151.06 319.032C150.642 323.052 151.694 327.088 154.015 330.375C156.337 333.661 159.768 335.97 163.658 336.863Z" fill="#ED9DA0"/>
<path d="M266.328 269.237L240.133 207.855C237.99 202.815 234.156 198.708 229.31 196.262C227.812 195.512 226.238 194.928 224.617 194.52C224.365 194.455 224.114 194.395 223.863 194.343C220.424 193.577 216.856 193.638 213.444 194.522C210.326 195.329 207.41 196.793 204.888 198.819C202.365 200.845 200.292 203.388 198.804 206.28C198.788 206.304 198.773 206.33 198.761 206.356C197.099 209.604 196.212 213.202 196.172 216.86C196.131 220.519 196.939 224.135 198.53 227.42L198.855 228.082L217.375 265.938C218.008 267.233 218.363 268.648 218.418 270.092C218.473 271.535 218.226 272.975 217.694 274.315C217.161 275.655 216.356 276.866 215.329 277.868C214.303 278.87 213.079 279.641 211.737 280.13L210.432 280.605L186.95 289.159C185.188 289.793 183.738 291.096 182.904 292.792C182.071 294.489 181.919 296.447 182.481 298.255L182.538 298.445L189.083 319.794C189.115 319.892 189.147 319.99 189.184 320.087C189.241 320.271 189.313 320.45 189.397 320.624C190.094 322.214 191.327 323.501 192.876 324.252C194.425 325.002 196.187 325.168 197.846 324.719L210.516 321.35L213.1 320.66L245.82 311.962C250.125 310.816 254.135 308.74 257.575 305.877C261.015 303.014 263.805 299.432 265.752 295.374C267.7 291.317 268.76 286.881 268.859 282.37C268.958 277.859 268.095 273.38 266.328 269.239L266.328 269.237Z" fill="#F2F2F2"/>
<path d="M20.9999 317C25.4999 327 31.4999 337.5 37.9999 347L273.617 347.283C275.946 347.291 278.177 348.234 279.821 349.906C281.464 351.579 282.386 353.844 282.385 356.205L283 415C297.881 408.098 307.5 401.5 321 391.5C324.513 388.584 327.704 386.17 331 383C333.158 380.932 335.944 378.669 338 376.5C353.5 361.5 372 336.5 381 314L20.9999 317Z" fill="#090814"/>
<path d="M340.643 376.568C338.591 378.74 336.484 380.858 334.322 382.924L282.867 382.843L282.877 376.477L340.643 376.568Z" fill="white"/>
<path d="M228.983 172.813C228.73 172.337 228.354 171.939 227.896 171.662C227.438 171.384 226.915 171.237 226.381 171.237L51.0466 170.961C50.2605 170.961 49.5067 171.278 48.9504 171.841C48.3942 172.404 48.0807 173.168 48.0789 173.965L47.9114 280.349L229.177 280.635L229.345 174.25C229.348 173.747 229.224 173.252 228.983 172.813Z" fill="#090814"/>
<path d="M47.7568 277.469L47.7362 290.597C47.7344 291.696 48.1635 292.751 48.929 293.529C49.6945 294.308 50.7336 294.746 51.8179 294.748L118.722 294.853L118.681 320.761L117.792 320.76C117.722 320.76 117.653 320.774 117.589 320.8C117.524 320.827 117.466 320.867 117.416 320.917C117.367 320.967 117.328 321.026 117.301 321.091C117.274 321.157 117.26 321.227 117.26 321.297L117.257 323.099C117.257 323.242 117.313 323.379 117.412 323.48C117.512 323.581 117.647 323.638 117.787 323.638L159.321 323.703C159.462 323.704 159.597 323.647 159.697 323.546C159.796 323.445 159.852 323.309 159.853 323.166L159.855 321.362C159.856 321.219 159.8 321.082 159.701 320.981C159.601 320.88 159.466 320.823 159.325 320.823L158.436 320.821L158.477 294.916L225.381 295.021C226.466 295.023 227.506 294.588 228.274 293.812C229.042 293.036 229.475 291.982 229.476 290.883L229.497 277.755L47.7568 277.469Z" fill="#090814"/>
<path d="M136.491 239.93C145.738 239.945 153.247 232.357 153.261 222.983C153.276 213.608 145.792 205.997 136.544 205.982C127.297 205.968 119.789 213.556 119.774 222.93C119.759 232.304 127.244 239.916 136.491 239.93Z" fill="#DFD1B7"/>
<path d="M179.327 127.762L176.655 127.758C176.687 107.264 156.701 93.8025 136.517 93.7602C133.581 93.7469 130.651 94.031 127.771 94.6084C124.529 95.2596 121.164 96.0403 117.858 97.0595C104.818 101.089 92.7183 108.899 92.6889 127.625C92.6802 131.262 93.131 134.885 94.03 138.406L91.4406 139.085C90.4874 135.341 90.0091 131.488 90.0175 127.621C90.0433 111.258 96.6874 100.03 108.143 93.3462C114.165 89.8318 121.512 87.5713 129.926 86.4789C133.428 86.0122 136.967 85.9087 140.489 86.17C163.69 87.8984 179.361 105.967 179.327 127.762Z" fill="#DFD1B7"/>
<path d="M183.779 129.271L182.737 121.375C182.585 120.237 182.211 119.142 181.636 118.152C181.061 117.163 180.297 116.3 179.389 115.614C178.481 114.928 177.447 114.433 176.348 114.157C175.249 113.881 174.106 113.83 172.987 114.008L171.315 114.239C170.391 114.364 169.553 114.857 168.986 115.608C168.419 116.36 168.17 117.308 168.293 118.246L170.698 136.435C170.796 137.176 171.123 137.867 171.631 138.41C172.139 138.953 172.802 139.32 173.527 139.459C173.742 139.503 173.961 139.525 174.18 139.525C174.337 139.525 174.494 139.515 174.65 139.494L176.522 139.242C177.664 139.09 178.763 138.703 179.752 138.105C180.74 137.508 181.598 136.711 182.272 135.765C182.416 135.559 182.556 135.348 182.685 135.131C183.69 133.358 184.076 131.294 183.779 129.271Z" fill="#DFD1B7"/>
<path d="M183.779 129.271L182.739 121.373C182.483 119.379 181.538 117.542 180.073 116.186L182.466 134.282C182.502 134.572 182.575 134.857 182.684 135.128C183.689 133.355 184.075 131.291 183.779 129.269L183.779 129.271Z" fill="#090814"/>
<path d="M102.289 146.455L98.1983 129.092C98.0524 128.465 97.7272 127.897 97.2636 127.457C96.8 127.017 96.2186 126.727 95.5925 126.621C95.4155 126.593 95.2367 126.578 95.0576 126.577C94.8051 126.577 94.5535 126.608 94.308 126.668L92.7134 127.056C90.6601 127.555 88.886 128.86 87.7807 130.684C86.6754 132.508 86.3292 134.702 86.8181 136.784L88.6505 144.573C89.0686 146.407 90.0694 148.051 91.499 149.253C91.7307 149.443 91.9734 149.619 92.2257 149.78C93.1213 150.351 94.1208 150.734 95.165 150.907C96.2092 151.08 97.277 151.039 98.3054 150.787L99.8942 150.399C100.314 150.301 100.71 150.115 101.056 149.853C101.571 149.475 101.963 148.95 102.183 148.344C102.403 147.739 102.44 147.081 102.289 146.455Z" fill="#DFD1B7"/>
<path d="M87.7569 133.349C87.644 132.866 87.4316 132.413 87.1335 132.019C86.5522 133.538 86.4431 135.201 86.821 136.785L88.6535 144.574C89.0715 146.408 90.0723 148.052 91.502 149.253L87.7569 133.349Z" fill="#090814"/>
</g>
<defs>
<clipPath id="clip0_25_150">
<rect width="464.123" height="435.115" fill="white" transform="translate(0.685059) rotate(0.0902122)"/>
</clipPath>
</defs>
</svg>
