<svg width="649" height="524" viewBox="0 0 649 524" fill="none" xmlns="http://www.w3.org/2000/svg">
<g clip-path="url(#clip0_28_98)">
<path d="M489.127 141.264C491.54 141.264 493.497 139.316 493.497 136.912C493.497 134.509 491.54 132.561 489.127 132.561C486.714 132.561 484.758 134.509 484.758 136.912C484.758 139.316 486.714 141.264 489.127 141.264Z" fill="#E6E6E6"/>
<path d="M92.0723 141.264C94.4854 141.264 96.4417 139.316 96.4417 136.912C96.4417 134.509 94.4854 132.561 92.0723 132.561C89.6591 132.561 87.7029 134.509 87.7029 136.912C87.7029 139.316 89.6591 141.264 92.0723 141.264Z" fill="#E6E6E6"/>
<path d="M429.847 101.954C432.26 101.954 434.216 100.006 434.216 97.6027C434.216 95.1994 432.26 93.2511 429.847 93.2511C427.434 93.2511 425.478 95.1994 425.478 97.6027C425.478 100.006 427.434 101.954 429.847 101.954Z" fill="#E6E6E6"/>
<path d="M202.361 70.3999C204.774 70.3999 206.73 68.4516 206.73 66.0483C206.73 63.645 204.774 61.6967 202.361 61.6967C199.948 61.6967 197.991 63.645 197.991 66.0483C197.991 68.4516 199.948 70.3999 202.361 70.3999Z" fill="#E6E6E6"/>
<path d="M265.063 48.5664C267.476 48.5664 269.432 46.6182 269.432 44.2148C269.432 41.8115 267.476 39.8632 265.063 39.8632C262.65 39.8632 260.694 41.8115 260.694 44.2148C260.694 46.6182 262.65 48.5664 265.063 48.5664Z" fill="#E6E6E6"/>
<path d="M206.731 8.70321C209.144 8.70321 211.1 6.75493 211.1 4.35161C211.1 1.94828 209.144 0 206.731 0C204.318 0 202.362 1.94828 202.362 4.35161C202.362 6.75493 204.318 8.70321 206.731 8.70321Z" fill="#E6E6E6"/>
<path d="M367.56 81.0338C349.727 76.597 334.417 67.8768 322.448 53.4804C321.535 52.9218 320.882 52.0242 320.631 50.9846C320.38 49.945 320.551 48.8483 321.108 47.935L341.928 13.8834C342.487 12.9715 343.385 12.3185 344.425 12.0676C345.465 11.8167 346.563 11.9885 347.476 12.5452L392.59 40.0994C393.502 40.6581 394.155 41.5557 394.406 42.5954C394.657 43.635 394.486 44.7316 393.929 45.6448L373.109 79.6964C372.55 80.6081 371.652 81.261 370.611 81.5117C369.571 81.7624 368.474 81.5906 367.56 81.0338Z" fill="#E6E6E6"/>
<path d="M355.532 70.1004C346.143 69.0762 336.384 61.579 326.53 52.3864C325.675 51.8633 325.063 51.0225 324.828 50.0488C324.593 49.075 324.754 48.0477 325.275 47.1924L343.169 17.9283C343.692 17.0741 344.533 16.4625 345.508 16.2274C346.482 15.9923 347.51 16.1531 348.366 16.6744L388.507 41.1934C389.362 41.7165 389.974 42.5573 390.209 43.531C390.444 44.5048 390.283 45.5321 389.761 46.3874L378.682 64.5161C376.35 68.3212 372.602 71.0462 368.262 72.0931C363.922 73.1401 359.344 72.4234 355.532 70.1004Z" fill="white"/>
<path d="M354.44 56.7746C361.378 56.7746 367.003 51.1735 367.003 44.2643C367.003 37.3551 361.378 31.7541 354.44 31.7541C347.502 31.7541 341.878 37.3551 341.878 44.2643C341.878 51.1735 347.502 56.7746 354.44 56.7746Z" fill="#948878"/>
<path d="M365.59 39.2911C385.967 32.9609 407.781 39.8064 428.27 33.9647C432.982 32.6765 437.437 30.5855 441.438 27.7839C444.85 25.1984 448.054 22.3491 451.02 19.2625C457.183 13.1701 463.876 6.7725 473.136 6.84554C485.33 6.93887 494.692 15.9911 502.82 23.985C503.969 25.1147 505.743 23.3479 504.589 22.2166C497.119 14.8711 489.051 7.12147 478.422 4.93025C473.653 3.87315 468.675 4.28629 464.147 6.11513C460.217 7.8996 456.628 10.3526 453.539 13.3648C450.265 16.3676 447.246 19.6325 443.928 22.5858C440.464 25.7354 436.473 28.2526 432.138 30.023C422.746 33.7611 412.443 34.2123 402.453 34.1035C389.912 33.9672 377.073 33.1134 364.924 36.8864C363.391 37.3628 364.045 39.7772 365.589 39.2975L365.59 39.2911Z" fill="#3F3D56"/>
<path d="M507.292 7.12633L513.555 18.1636L516.587 23.5037C517.125 24.4524 517.679 25.3946 518.203 26.3515C518.528 26.939 519.229 27.9997 518.557 28.5565C517.967 28.8448 517.303 28.9483 516.653 28.8535C515.549 28.8535 514.445 28.8308 513.34 28.8202L507.128 28.7569L494.291 28.6271C493.968 28.6413 493.664 28.7792 493.441 29.0121C493.218 29.245 493.094 29.555 493.094 29.8773C493.094 30.1996 493.218 30.5096 493.441 30.7425C493.664 30.9754 493.968 31.1133 494.291 31.1275C501.743 31.203 509.201 31.3604 516.654 31.354C517.953 31.4775 519.253 31.1219 520.308 30.3541C520.825 29.8398 521.167 29.1761 521.286 28.4568C521.405 27.7376 521.295 26.9991 520.971 26.3458C520.237 24.7431 519.392 23.1934 518.442 21.7077L515.715 16.9016L509.451 5.86435C509.277 5.59048 509.004 5.39459 508.689 5.31794C508.374 5.24129 508.041 5.28986 507.761 5.45342C507.481 5.61697 507.276 5.88275 507.188 6.19479C507.1 6.50683 507.136 6.84079 507.29 7.12633H507.292Z" fill="#3F3D56"/>
<path d="M590.084 34.1685H532.513C531.877 34.1685 531.267 33.9158 530.817 33.4662C530.367 33.0165 530.114 32.4066 530.114 31.7707C530.114 31.1348 530.367 30.5249 530.817 30.0752C531.267 29.6255 531.877 29.3729 532.513 29.3729H590.084C590.721 29.3729 591.331 29.6255 591.781 30.0752C592.231 30.5249 592.483 31.1348 592.483 31.7707C592.483 32.4066 592.231 33.0165 591.781 33.4662C591.331 33.9158 590.721 34.1685 590.084 34.1685Z" fill="#948878"/>
<path d="M590.084 59.413H532.513C531.877 59.413 531.267 59.1604 530.817 58.7107C530.367 58.261 530.114 57.6511 530.114 57.0152C530.114 56.3793 530.367 55.7694 530.817 55.3197C531.267 54.8701 531.877 54.6174 532.513 54.6174H590.084C590.721 54.6174 591.331 54.8701 591.781 55.3197C592.231 55.7694 592.483 56.3793 592.483 57.0152C592.483 57.6511 592.231 58.261 591.781 58.7107C591.331 59.1604 590.721 59.413 590.084 59.413Z" fill="#E6E6E6"/>
<path d="M646.601 46.7907H532.512C531.875 46.7907 531.265 46.5381 530.815 46.0884C530.365 45.6388 530.113 45.0289 530.113 44.393C530.113 43.757 530.365 43.1472 530.815 42.6975C531.265 42.2478 531.875 41.9952 532.512 41.9952H646.598C647.234 41.9952 647.845 42.2478 648.294 42.6975C648.744 43.1472 648.997 43.757 648.997 44.393C648.997 45.0289 648.744 45.6388 648.294 46.0884C647.845 46.5381 647.234 46.7907 646.598 46.7907H646.601Z" fill="#E6E6E6"/>
<path d="M344.148 180.202C326.315 175.765 311.004 167.045 299.035 152.649C298.123 152.09 297.47 151.192 297.219 150.153C296.968 149.113 297.14 148.016 297.696 147.103L318.516 113.052C319.075 112.14 319.973 111.487 321.014 111.236C322.054 110.985 323.151 111.157 324.065 111.713L369.177 139.268C370.089 139.826 370.743 140.724 370.994 141.764C371.245 142.803 371.073 143.9 370.516 144.813L349.696 178.865C349.137 179.776 348.239 180.429 347.199 180.68C346.159 180.931 345.061 180.759 344.148 180.202Z" fill="#E6E6E6"/>
<path d="M332.12 169.268C322.73 168.244 312.972 160.746 303.117 151.554C302.263 151.031 301.65 150.19 301.415 149.216C301.18 148.242 301.341 147.215 301.863 146.36L319.756 117.096C320.28 116.242 321.121 115.63 322.095 115.395C323.069 115.16 324.097 115.321 324.953 115.842L365.094 140.361C365.949 140.884 366.561 141.725 366.796 142.699C367.031 143.672 366.87 144.699 366.349 145.555L355.269 163.684C352.937 167.488 349.19 170.212 344.851 171.259C340.512 172.306 335.934 171.59 332.122 169.268H332.12Z" fill="white"/>
<path d="M334.072 155.065C341.01 155.065 346.634 149.464 346.634 142.554C346.634 135.645 341.01 130.044 334.072 130.044C327.134 130.044 321.509 135.645 321.509 142.554C321.509 149.464 327.134 155.065 334.072 155.065Z" fill="#948878"/>
<path d="M465.392 197.727H407.821C407.185 197.727 406.575 197.474 406.125 197.025C405.675 196.575 405.422 195.965 405.422 195.329C405.422 194.693 405.675 194.083 406.125 193.634C406.575 193.184 407.185 192.931 407.821 192.931H465.392C466.028 192.931 466.639 193.184 467.089 193.634C467.539 194.083 467.791 194.693 467.791 195.329C467.791 195.965 467.539 196.575 467.089 197.025C466.639 197.474 466.028 197.727 465.392 197.727Z" fill="#948878"/>
<path d="M465.392 223.006H407.821C407.185 223.006 406.575 222.754 406.125 222.304C405.675 221.854 405.422 221.245 405.422 220.609C405.422 219.973 405.675 219.363 406.125 218.913C406.575 218.463 407.185 218.211 407.821 218.211H465.392C466.028 218.211 466.639 218.463 467.089 218.913C467.539 219.363 467.791 219.973 467.791 220.609C467.791 221.245 467.539 221.854 467.089 222.304C466.639 222.754 466.028 223.006 465.392 223.006Z" fill="#E6E6E6"/>
<path d="M521.909 210.367H407.823C407.187 210.367 406.576 210.114 406.127 209.665C405.677 209.215 405.424 208.605 405.424 207.969C405.424 207.333 405.677 206.724 406.127 206.274C406.576 205.824 407.187 205.572 407.823 205.572H521.909C522.546 205.572 523.156 205.824 523.606 206.274C524.056 206.724 524.308 207.333 524.308 207.969C524.308 208.605 524.056 209.215 523.606 209.665C523.156 210.114 522.546 210.367 521.909 210.367Z" fill="#E6E6E6"/>
<path d="M331.88 142.791L374.928 175.253L387.18 184.492C388.465 185.461 389.713 183.291 388.443 182.332L345.395 149.87L333.143 140.631C331.857 139.662 330.609 141.832 331.88 142.791Z" fill="#3F3D56"/>
<path d="M368.511 186.47C377.9 190.972 388.107 193.518 398.511 193.953C398.703 193.951 398.891 193.905 399.063 193.819C399.234 193.732 399.384 193.608 399.5 193.456C399.616 193.303 399.696 193.126 399.734 192.938C399.772 192.75 399.766 192.556 399.717 192.371L393.051 165.627C392.662 164.067 390.248 164.728 390.638 166.292L397.301 193.035L398.508 191.452C388.544 191.04 378.768 188.611 369.772 184.31C368.326 183.618 367.056 185.771 368.509 186.47H368.511Z" fill="#3F3D56"/>
<path d="M135.131 73.4311C117.298 68.9943 101.988 60.274 90.0188 45.8777C89.1063 45.3191 88.4527 44.4215 88.2015 43.3819C87.9503 42.3423 88.122 41.2455 88.6789 40.3323L109.499 6.28067C110.058 5.36878 110.956 4.71577 111.996 4.46488C113.036 4.21399 114.133 4.38574 115.047 4.94241L160.16 32.4966C161.073 33.0554 161.726 33.953 161.977 34.9926C162.228 36.0322 162.056 37.1289 161.499 38.042L140.68 72.0936C140.121 73.0055 139.222 73.6586 138.182 73.9094C137.142 74.1603 136.045 73.9886 135.131 73.4319V73.4311Z" fill="#E6E6E6"/>
<path d="M123.102 62.4969C113.713 61.4727 103.954 53.9755 94.0998 44.7829C93.245 44.2597 92.6329 43.419 92.3977 42.4452C92.1625 41.4714 92.3234 40.4442 92.8452 39.5889L110.739 10.3247C111.262 9.47061 112.103 8.85892 113.078 8.62386C114.052 8.3888 115.08 8.54956 115.935 9.07085L156.077 33.5898C156.931 34.1131 157.543 34.9539 157.778 35.9276C158.014 36.9013 157.853 37.9285 157.331 38.7838L146.251 56.9125C143.919 60.717 140.173 63.4415 135.833 64.4884C131.494 65.5354 126.916 64.8191 123.104 62.4969H123.102Z" fill="white"/>
<path d="M122.003 50.0077C128.941 50.0077 134.566 44.4067 134.566 37.4975C134.566 30.5883 128.941 24.9872 122.003 24.9872C115.065 24.9872 109.441 30.5883 109.441 37.4975C109.441 44.4067 115.065 50.0077 122.003 50.0077Z" fill="#948878"/>
<path d="M59.9713 111.164H2.40028C1.76401 111.164 1.15378 110.911 0.703868 110.462C0.253956 110.012 0.0012207 109.402 0.0012207 108.766C0.0012207 108.13 0.253956 107.52 0.703868 107.071C1.15378 106.621 1.76401 106.368 2.40028 106.368H59.9713C60.6076 106.368 61.2178 106.621 61.6677 107.071C62.1176 107.52 62.3703 108.13 62.3703 108.766C62.3703 109.402 62.1176 110.012 61.6677 110.462C61.2178 110.911 60.6076 111.164 59.9713 111.164Z" fill="#948878"/>
<path d="M59.9713 136.444H2.40028C1.76401 136.444 1.15378 136.192 0.703868 135.742C0.253956 135.292 0.0012207 134.682 0.0012207 134.046C0.0012207 133.41 0.253956 132.801 0.703868 132.351C1.15378 131.901 1.76401 131.649 2.40028 131.649H59.9713C60.6076 131.649 61.2178 131.901 61.6677 132.351C62.1176 132.801 62.3703 133.41 62.3703 134.046C62.3703 134.682 62.1176 135.292 61.6677 135.742C61.2178 136.192 60.6076 136.444 59.9713 136.444Z" fill="#E6E6E6"/>
<path d="M116.488 123.804H2.40184C1.76568 123.804 1.15558 123.552 0.705747 123.102C0.255911 122.652 0.00317383 122.043 0.00317383 121.407C0.00317383 120.771 0.255911 120.161 0.705747 119.712C1.15558 119.262 1.76568 119.009 2.40184 119.009H116.488C117.125 119.009 117.735 119.262 118.185 119.712C118.635 120.161 118.887 120.771 118.887 121.407C118.887 122.043 118.635 122.653 118.185 123.103C117.735 123.552 117.125 123.805 116.488 123.805V123.804Z" fill="#E6E6E6"/>
<path d="M120.38 36.9221L89.4477 81.1361L80.7293 93.5976C79.8044 94.9197 81.9724 96.1703 82.89 94.8596L113.822 50.6456L122.541 38.1841C123.465 36.8628 121.297 35.6138 120.38 36.9221Z" fill="#3F3D56"/>
<path d="M78.0025 75.0997C73.8505 84.6087 71.6908 94.8669 71.6567 105.242C71.6591 105.434 71.7051 105.622 71.7913 105.794C71.8776 105.965 72.0017 106.115 72.1543 106.231C72.3069 106.347 72.484 106.427 72.6721 106.465C72.8603 106.502 73.0545 106.497 73.2402 106.448L99.8113 98.7552C100.12 98.6574 100.379 98.4439 100.534 98.1594C100.688 97.8749 100.727 97.5416 100.641 97.2295C100.554 96.9174 100.351 96.6508 100.072 96.4857C99.7934 96.3205 99.4616 96.2698 99.1463 96.344L72.5751 104.037L74.1585 105.243C74.1706 95.3078 76.2137 85.48 80.1625 76.3625C80.7983 74.9017 78.6432 73.6267 78.0017 75.1005L78.0025 75.0997Z" fill="#3F3D56"/>
<path d="M209.031 499.805C209.002 499.815 208.975 499.829 208.949 499.846C209.942 497.704 210.867 495.537 211.71 493.336C211.81 493.078 211.902 492.811 212.002 492.553C211.994 492.619 211.994 492.686 211.985 492.761C211.96 493.178 211.926 493.595 211.893 494.02C211.843 494.678 211.801 495.345 211.793 496.012C211.785 496.221 211.785 496.418 211.785 496.629C211.788 497.441 211.871 498.251 212.035 499.047H212.002C211.793 499.064 211.601 499.072 211.401 499.105C210.616 499.21 209.85 499.429 209.127 499.755C209.095 499.768 209.064 499.785 209.036 499.805H209.031Z" fill="url(#paint0_linear_28_98)"/>
<path d="M224.825 172.4C224.914 175.88 226.094 179.253 226.279 182.727C216.023 183.236 205.906 178.263 195.748 179.788C198.59 177.952 200.104 174.644 200.998 171.386C202.135 167.183 202.475 162.804 201.999 158.477C201.972 158.236 201.929 157.997 201.871 157.762C201.495 156.058 200.519 153.65 200.781 152.312C201.125 150.539 202.796 150.89 204.302 150.992C208.892 151.342 213.461 151.931 217.99 152.758C219.169 152.962 230.663 155.831 230.836 155.531C228.821 158.762 227.153 162.195 225.86 165.776C225.144 167.91 224.794 170.149 224.825 172.4Z" fill="#ED9DA0"/>
<path d="M326.255 161.646C325.374 162.847 324.319 163.911 323.124 164.801C322.346 165.438 321.548 166.089 320.713 166.675C319.225 167.823 317.452 168.544 315.585 168.76C313.142 168.922 307.956 167.491 306.438 165.4C305.799 164.349 305.494 163.128 305.565 161.9C305.59 160.234 305.874 158.582 306.407 157.004C307.358 154.435 308.691 152.023 310.361 149.851C312.128 147.397 314.096 144.982 316.721 143.495C317.597 143.027 318.5 142.611 319.426 142.252C321.02 141.602 322.609 140.945 324.203 140.294C324.475 140.162 324.769 140.084 325.071 140.065C326.353 140.078 326.589 142.034 325.862 143.093C324.407 145.222 321.135 145.814 320.217 148.231C320.99 148.254 321.737 148.523 322.349 148.997C322.961 149.471 323.407 150.127 323.623 150.87C323.659 151.264 323.82 151.637 324.083 151.934C324.503 152.272 325.161 152.081 325.639 152.336C326.488 152.789 326.117 154.051 326.208 155.007C326.416 155.836 326.709 156.641 327.081 157.41C327.261 158.133 327.281 158.886 327.139 159.618C326.997 160.349 326.696 161.04 326.259 161.643L326.255 161.646Z" fill="#ED9DA0"/>
<path d="M184.874 510.629C185.663 509.841 186.953 509.975 188.056 510.149C193.974 511.084 199.954 511.568 205.946 511.595C206.696 507.934 204.518 504.372 203.817 500.706C203.715 499.758 203.477 498.831 203.108 497.952C202.264 496.334 200.361 495.594 198.574 495.217C195.351 494.538 190.311 493.338 188.51 496.597C186.351 500.508 185.66 506.282 184.874 510.629Z" fill="#ED9DA0"/>
<path d="M250.422 496.804C247.991 498.461 244.975 498.978 242.053 499.354C239.132 499.729 236.122 500.01 233.474 501.311C231.191 502.439 229.265 504.288 226.847 505.098C224.599 505.714 222.231 505.752 219.964 505.207C217.247 504.697 214.351 503.708 212.885 501.362C211.577 499.277 211.717 496.632 211.896 494.177C212.106 491.405 212.312 488.627 212.514 485.845C212.504 485.14 212.682 484.444 213.031 483.831C214.995 480.968 219.77 485.03 222.331 485.023C226.381 485.017 230.731 482.824 233.652 480.14C233.908 479.873 234.205 479.649 234.533 479.477C235.687 478.961 236.842 479.917 237.868 480.752C237.983 480.848 238.098 480.943 238.213 481.033C240.579 482.906 243.755 483.289 246.677 484.048C249.598 484.807 252.736 486.337 253.642 489.219C253.701 489.4 253.748 489.585 253.783 489.773C254.312 492.424 252.699 495.249 250.422 496.804Z" fill="#090814"/>
<path d="M185.984 316.117C184.091 325.402 185.886 335.059 190.989 343.046C192.38 345.2 194.01 347.223 195.057 349.565C195.742 351.235 196.274 352.964 196.644 354.731L201.153 373.381C202.371 378.413 203.595 383.548 203.23 388.715C202.975 392.315 202.067 396.363 204.285 399.209C204.821 399.753 205.273 400.372 205.627 401.048C205.848 401.84 205.855 402.676 205.649 403.471C203.368 417.012 201.676 431.167 205.796 444.266C209.532 456.138 209.744 469.292 212.918 481.326C213.311 482.816 213.761 484.388 214.891 485.436C215.74 486.15 216.758 486.633 217.847 486.84C222.526 487.953 227.467 486.649 231.83 484.629C234.897 483.208 238.198 480.718 237.935 477.35C237.81 475.748 236.874 474.347 236.239 472.867C234.993 469.973 234.893 466.739 234.556 463.604C233.711 455.732 231.284 448.137 229.449 440.438C227.614 432.739 226.369 424.694 227.92 416.934C231.094 400.881 236.173 385.264 243.05 370.415C243.35 369.625 243.823 368.913 244.436 368.332C245.126 367.941 245.782 367.493 246.398 366.993C246.874 366.257 247.181 365.424 247.295 364.555C247.978 362.098 250.005 360.286 251.364 358.129C254.794 352.681 253.707 345.699 253.58 339.263C253.457 333.005 254.358 326.689 253.332 320.516C252.305 314.343 248.766 308.029 242.81 306.094C239.859 305.136 236.67 305.353 233.582 305.659C217.228 307.274 201.334 310.244 185.984 316.117Z" fill="#090814"/>
<path d="M252.603 355.368C252.555 357.801 252.28 360.223 251.781 362.604C248.898 378.765 245.825 394.891 242.564 410.984C242.277 412.38 241.995 413.777 241.62 415.147C240.404 419.625 238.279 423.804 235.375 427.425C221.782 444.356 220.609 468.945 213.235 489.364C212.737 490.744 212.24 492.131 211.711 493.495C210.379 496.956 208.861 500.342 207.164 503.639C206.965 504.12 206.641 504.538 206.226 504.85C205.769 505.08 205.257 505.18 204.746 505.138C198.112 505.176 191.558 503.686 185.592 500.784C184.74 500.47 184.022 499.873 183.557 499.094C183.328 498.472 183.254 497.803 183.34 497.146C183.544 493.098 183.794 488.903 185.726 485.346C187.009 483.218 188.599 481.291 190.446 479.628C191.02 466.923 192.277 454.192 195.075 441.786C196.509 435.443 198.283 429.03 201.969 423.669C204.686 419.71 208.584 415.802 208.106 411.027C207.895 408.93 207.015 406.32 208.724 405.086C209.471 404.543 210.574 404.474 211.079 403.706C211.283 403.343 211.396 402.936 211.411 402.52C211.763 399.243 211.558 395.93 210.806 392.721C210.184 390.625 209.696 388.492 209.344 386.334C209.127 384.153 209.497 381.795 210.952 380.166C211.041 375.805 210.92 371.279 211.009 366.925C211.181 364.443 210.975 361.95 210.397 359.53C210.066 358.389 209.562 357.299 209.307 356.132C208.395 351.944 210.672 346.926 207.961 343.606C206.832 342.226 205.091 341.54 203.611 340.545C200.658 338.575 198.719 335.351 197.641 331.964C196.684 328.537 196.117 325.013 195.95 321.459C195.862 320.704 195.853 319.943 195.925 319.186C195.972 318.795 196.076 318.413 196.231 318.05C197.073 316.157 199.338 315.424 201.353 314.94C214.163 311.869 227.293 310.335 240.466 310.369C245.338 307.054 248.081 308.239 250.148 311.748C251.289 313.893 252.212 316.146 252.903 318.474C253.847 321.323 253.904 337.274 254.823 340.136C256.009 343.862 252.559 351.461 252.603 355.368Z" fill="#090814"/>
<path d="M220.215 165.816C233.296 165.816 243.9 155.218 243.9 142.144C243.9 129.07 233.296 118.471 220.215 118.471C207.134 118.471 196.53 129.07 196.53 142.144C196.53 155.218 207.134 165.816 220.215 165.816Z" fill="#ED9DA0"/>
<path d="M234 180.898C232.967 182.091 231.582 183.408 230.05 183.023C229.497 182.834 228.977 182.556 228.513 182.201C225.782 180.442 222.431 180.029 219.219 179.546C212.744 178.57 206.348 177.133 200.079 175.244C198.26 174.582 196.352 174.194 194.418 174.093C190.403 174.115 186.846 176.781 184.329 179.908C181.813 183.035 180.032 186.694 177.563 189.858C175.804 192.113 173.709 194.099 172.067 196.439C167.921 202.347 184.718 272.61 184.491 273.794C182.918 284.974 182.092 316.096 182.786 321.831C190.196 318.97 197.96 317.126 205.866 316.35C210.956 315.851 216.141 315.788 221.051 314.36C224.118 313.467 227.026 312.056 230.139 311.345C232.665 310.85 235.23 310.588 237.803 310.563C243.479 310.334 249.195 310.107 254.813 310.943C255.268 311.011 255.822 311.047 256.094 310.677C256.216 310.476 256.275 310.243 256.265 310.008C256.351 307.903 255.847 305.817 254.811 303.983C254.095 302.719 253.1 301.483 253.127 300.032C253.179 299.355 251.715 210.887 249.614 207.115C247.168 202.725 244.688 198.245 243.701 193.319C243.051 190.058 243.07 186.699 242.602 183.406C242.553 182.57 242.262 181.766 241.765 181.092C240.963 180.183 239.605 180.053 238.393 180.091C236.896 180.14 235.415 180.413 234 180.902V180.898Z" fill="#948878"/>
<path d="M241.91 217.872C243.352 219.668 244.855 221.516 246.899 222.579C249.254 223.796 252.024 223.827 254.674 223.771C265.588 223.537 276.46 222.342 287.164 220.2C288.382 219.99 301.455 211.876 304.135 208.463C307.323 204.342 315.341 177.892 315.623 176.385C316.115 173.787 317.433 171.417 319.382 169.628C319.795 169.334 320.107 168.919 320.275 168.441C320.328 168.042 320.253 167.637 320.062 167.284C318.972 164.855 316.478 163.29 313.891 162.658C311.272 162.153 308.592 162.046 305.941 162.342C305.057 162.509 304.187 162.74 303.337 163.033C301.235 168.723 286.594 195.069 285.828 195.029C283.735 195.158 279.215 195.922 277.319 195.029C275.163 194.02 268.098 193.979 267.721 193.773C266.867 193.276 259.186 189.95 258.184 190.057C258.815 189.495 244.269 185.837 243.266 184.092C242.911 183.473 242.842 182.631 242.237 182.255C241.827 182.054 241.361 182 240.916 182.102C239.526 182.287 238.177 182.696 236.919 183.314C234.868 191.333 235.945 199.659 237.507 207.787C238.078 211.473 239.595 214.949 241.91 217.875L241.91 217.872Z" fill="#948878"/>
<path d="M230.001 174.956C227.46 173.375 224.468 172.705 221.524 172.168C219.756 171.766 217.938 171.635 216.131 171.78C214.464 171.987 212.863 172.631 211.186 172.724C208.831 172.856 206.574 171.901 204.298 171.279C202.023 170.657 199.396 170.419 197.478 171.794C197.07 172.195 196.555 172.469 195.994 172.582C195.413 172.512 194.872 172.247 194.46 171.831C192.849 170.678 190.893 170.107 188.914 170.211C186.935 170.315 185.05 171.089 183.569 172.405C179.226 176.475 179.717 184.426 174.628 187.513C173.225 188.364 171.432 188.812 170.612 190.235C170.414 190.688 170.183 191.126 169.92 191.544C169.579 191.919 169.162 192.216 168.696 192.416C167.219 193.075 165.814 193.883 164.501 194.826C163.847 195.303 163.295 195.907 162.88 196.602C162.465 197.297 162.196 198.069 162.087 198.871C162.068 200.047 162.322 201.212 162.829 202.273C165.319 208.379 169.64 213.563 175.198 217.115C180.756 220.666 187.278 222.411 193.868 222.108C195.037 222.167 196.189 221.808 197.116 221.094C197.605 220.541 197.99 219.906 198.253 219.217C200.645 214.203 205.14 210.502 207.993 205.735C209.693 202.894 210.785 199.716 212.556 196.918C215.239 192.676 219.32 189.542 223.315 186.501C225.568 184.787 228.076 182.987 230.906 183.107C233.428 183.215 235.263 183.351 234.338 180.258C233.568 178.03 232.028 176.15 229.995 174.956H230.001Z" fill="#948878"/>
<path opacity="0.05" d="M230.001 174.956C227.46 173.375 224.468 172.705 221.524 172.168C219.756 171.766 217.938 171.635 216.131 171.78C214.464 171.987 212.863 172.631 211.186 172.724C208.831 172.856 206.574 171.901 204.298 171.279C202.023 170.657 199.396 170.419 197.478 171.794C197.07 172.195 196.555 172.469 195.994 172.582C195.413 172.512 194.872 172.247 194.46 171.831C192.849 170.678 190.893 170.107 188.914 170.211C186.935 170.315 185.05 171.089 183.569 172.405C179.226 176.475 179.717 184.426 174.628 187.513C173.225 188.364 171.432 188.812 170.612 190.235C170.414 190.688 170.183 191.126 169.92 191.544C169.579 191.919 169.162 192.216 168.696 192.416C167.219 193.075 165.814 193.883 164.501 194.826C163.847 195.303 163.295 195.907 162.88 196.602C162.465 197.297 162.196 198.069 162.087 198.871C162.068 200.047 162.322 201.212 162.829 202.273C165.319 208.379 169.64 213.563 175.198 217.115C180.756 220.666 187.278 222.411 193.868 222.108C195.037 222.167 196.189 221.808 197.116 221.094C197.605 220.541 197.99 219.906 198.253 219.217C200.645 214.203 205.14 210.502 207.993 205.735C209.693 202.894 210.785 199.716 212.556 196.918C215.239 192.676 219.32 189.542 223.315 186.501C225.568 184.787 228.076 182.987 230.906 183.107C233.428 183.215 235.263 183.351 234.338 180.258C233.568 178.03 232.028 176.15 229.995 174.956H230.001Z" fill="black"/>
<path d="M242.327 518.059C240.611 519.659 238.251 520.36 235.962 520.857C230.732 521.876 225.438 522.53 220.118 522.813C218.395 522.941 216.667 523.075 214.944 523.209C209.893 523.591 204.834 523.981 199.76 523.999C193.501 524.021 187.253 523.481 181.09 522.387C180.844 522.411 180.595 522.376 180.364 522.287C180.132 522.197 179.926 522.054 179.76 521.87C179.594 521.686 179.474 521.465 179.409 521.226C179.343 520.987 179.335 520.736 179.385 520.493C179.495 514.187 183.711 509.288 185.128 503.141C185.715 500.616 186.797 504.9 187.001 505.135C188.257 506.564 189.208 507.22 191.115 507.322C196.327 507.609 202.163 504.44 206.3 501.622C207.186 500.963 208.127 500.381 209.113 499.882C209.836 499.558 210.601 499.339 211.386 499.233C214.067 498.986 216.762 499.531 219.136 500.801C222.248 502.343 224.982 504.562 228.059 506.15C230.564 507.436 233.268 508.292 236.057 508.681C238.877 509.07 242.245 509.255 243.69 511.696C243.693 511.698 243.695 511.701 243.696 511.705C243.697 511.708 243.697 511.712 243.697 511.715C244.898 513.735 244.036 516.464 242.327 518.059Z" fill="#090814"/>
<path opacity="0.1" d="M193.353 145.431C193.852 145.742 194.409 145.949 194.989 146.04C195.722 146.254 196.493 146.306 197.248 146.193C198.003 146.08 198.724 145.805 199.362 145.386L193.353 145.431Z" fill="black"/>
<path d="M243.476 117.88C240.8 115.737 237.513 114.496 234.087 114.337C230.73 114.035 227.115 114.257 224.246 112.528C220.982 110.526 219.121 106.188 215.35 105.635C213.724 105.511 212.096 105.843 210.649 106.594C205.037 109.067 200.286 113.15 196.999 118.325C196.253 119.784 195.235 121.087 193.998 122.162C193.234 122.602 192.494 123.083 191.781 123.601C191.022 124.367 190.467 125.309 190.166 126.343C188.187 131.973 188.328 138.13 190.562 143.663C191.889 146.93 193.919 149.858 195.308 153.138C196.697 156.418 201.983 162.33 202.837 160.595C203.69 158.861 204.855 157.2 205.202 155.276C205.876 151.495 204.413 147.952 206.954 145.071C208.526 143.29 211.588 141.847 213.036 143.721C213.608 144.446 213.699 145.439 214.206 146.202C215.207 147.689 217.562 147.721 218.986 146.622C220.342 145.418 221.193 143.748 221.37 141.945C222.72 133.855 226.052 128.459 234.818 130.772C238.083 131.639 241.854 132.03 244.584 129.524C248.183 126.222 246.695 120.743 243.476 117.88Z" fill="#090814"/>
</g>
<defs>
<linearGradient id="paint0_linear_28_98" x1="661.281" y1="499.846" x2="661.281" y2="492.553" gradientUnits="userSpaceOnUse">
<stop stop-color="#808080" stop-opacity="0.251"/>
<stop offset="0.535" stop-color="#808080" stop-opacity="0.122"/>
<stop offset="1" stop-color="#808080" stop-opacity="0.102"/>
</linearGradient>
<clipPath id="clip0_28_98">
<rect width="649" height="524" fill="white"/>
</clipPath>
</defs>
</svg>
